<?xml version="1.0" encoding="UTF-8"?>
<svg version="1.1" xmlns="http://www.w3.org/2000/svg" width="1024" height="1024">
<path d="M0 0 C3.41098108 3.17030359 5.32989606 6.81913961 7 11.125 C7.34160168 11.99124375 7.68320336 12.85748749 8.03515661 13.74998105 C9.14820663 17.64342628 9.28141142 21.23961205 9.26171303 25.25030327 C9.26570909 26.05582709 9.26970515 26.86135091 9.27382231 27.69128454 C9.28480706 30.39539727 9.2815938 33.09930573 9.2784729 35.80343628 C9.28347516 37.75964754 9.28935075 39.71585673 9.29602563 41.67206299 C9.31184806 47.05146186 9.31525755 52.43080854 9.31667423 57.81022787 C9.32036435 63.60978277 9.33551789 69.40930891 9.34928894 75.20884705 C9.37157777 85.25824559 9.3865813 95.30763392 9.39665604 105.35705185 C9.41123296 119.88687401 9.43676039 134.41666117 9.46498732 148.94646241 C9.51065003 172.51931144 9.54709767 196.09216661 9.578125 219.66503906 C9.60828872 242.56576435 9.64262714 265.46647717 9.68261719 288.3671875 C9.68384819 289.07308679 9.68507919 289.77898608 9.6863475 290.50627626 C9.69871436 297.59520684 9.71116608 304.68413727 9.72367998 311.77306759 C9.74917032 326.21403681 9.77409419 340.65500699 9.79867554 355.09597778 C9.79980645 355.7599503 9.80093736 356.42392283 9.80210253 357.10801573 C9.87755782 401.44699599 9.93976704 445.78599677 10 490.125 C14.09439669 486.0400277 14.09439669 486.0400277 18.0859375 481.85546875 C18.62049561 481.28094971 19.15505371 480.70643066 19.70581055 480.11450195 C20.25664307 479.51984131 20.80747559 478.92518066 21.375 478.3125 C21.9522583 477.69012451 22.5295166 477.06774902 23.12426758 476.42651367 C26.56478419 472.70652484 29.95107451 468.94968537 33.26171875 465.11328125 C35.47256489 462.58447072 37.73596443 460.10627436 40 457.625 C42.84524228 454.50592989 45.6719958 451.37744609 48.4375 448.1875 C51.93312374 444.1579385 55.54844412 440.24177583 59.18139648 436.33618164 C61.14511773 434.21235725 63.00873322 432.11290169 64.703125 429.765625 C65.13109375 429.22421875 65.5590625 428.6828125 66 428.125 C66.66 428.125 67.32 428.125 68 428.125 C68.33 427.135 68.66 426.145 69 425.125 C71.328125 423.37109375 71.328125 423.37109375 74.25 421.5625 C75.68085937 420.66337891 75.68085937 420.66337891 77.140625 419.74609375 C85.86064014 414.80236932 95.50359765 413.77319214 105.28515625 415.80859375 C112.40734519 417.81613473 118.25574072 420.45504875 124 425.125 C125.01320313 425.91777344 125.01320313 425.91777344 126.046875 426.7265625 C134.9769766 434.58366739 140.75593596 447.17594133 141.9453125 458.91015625 C142.19969019 473.86393038 137.47442487 485.08002702 127.22265625 495.828125 C126.48917969 496.58609375 125.75570313 497.3440625 125 498.125 C123.82405176 499.45015457 122.65675414 500.78305784 121.5 502.125 C118.10625985 506.02151647 114.64569997 509.85564945 111.18359375 513.69140625 C109.29151315 515.80011146 107.42094242 517.92419801 105.5625 520.0625 C101.90942044 524.25803221 98.15494451 528.35873553 94.40625 532.46875 C92.41351047 534.66852741 90.4466186 536.88455218 88.5 539.125 C85.71185902 542.33399244 82.86471815 545.48416444 80 548.625 C76.53985272 552.41915849 73.12520885 556.24467237 69.7578125 560.12109375 C67.79996415 562.35304087 65.80750098 564.55120859 63.8125 566.75 C59.65360242 571.35373722 55.62589925 576.05894892 51.60742188 580.78466797 C47.227661 585.91167998 42.68557517 590.87062199 38.08203125 595.796875 C35.9843656 597.9372015 35.9843656 597.9372015 35 600.125 C34.34 600.125 33.68 600.125 33 600.125 C32.5978125 600.99125 32.5978125 600.99125 32.1875 601.875 C30.97070811 604.18050043 29.69666121 606.14556192 28 608.125 C27.34 608.125 26.68 608.125 26 608.125 C25.72744385 608.71974121 25.4548877 609.31448242 25.17407227 609.92724609 C24.03199951 612.06509989 22.87707268 613.54111757 21.21484375 615.2890625 C20.68439453 615.85367188 20.15394531 616.41828125 19.60742188 617 C18.78081055 617.86625 18.78081055 617.86625 17.9375 618.75 C14.03429271 622.61826309 14.03429271 622.61826309 11 627.125 C10.34 627.125 9.68 627.125 9 627.125 C8.73823975 627.70531982 8.47647949 628.28563965 8.20678711 628.88354492 C2.10195415 640.22250332 -10.8717327 651.82868125 -22.953125 656.19140625 C-35.34422521 659.73399003 -47.83532004 658.83034157 -59.5 653.1875 C-68.02726506 648.07114096 -74.91455548 639.6050317 -81.30078125 632.10546875 C-83.28030432 629.79830048 -85.3264212 627.55853218 -87.375 625.3125 C-90.44746773 621.91416448 -93.38442622 618.44909477 -96.25 614.875 C-100.3495192 609.80076994 -104.73370862 605.0626967 -109.20214844 600.31738281 C-113.22314839 596.02409097 -116.94982454 591.56271932 -120.625 586.96875 C-123.99025672 582.93929787 -127.59247037 579.14894646 -131.19213867 575.32958984 C-135.3353152 570.90849879 -139.1706018 566.30162507 -142.95703125 561.5703125 C-145.45595477 558.57924917 -148.18635234 555.91457524 -150.98046875 553.203125 C-154.08431367 550.00922656 -156.79656056 546.51792625 -159.58203125 543.046875 C-162.12597785 539.97276829 -164.78116975 537.04325199 -167.5 534.125 C-170.93238156 530.43786445 -174.22560101 526.68386468 -177.375 522.75 C-180.90718704 518.35692149 -184.63905459 514.22593511 -188.5 510.125 C-193.26392052 505.06290306 -197.77784282 499.90371957 -202.12109375 494.47265625 C-203.72913553 492.46343981 -205.3792229 490.50834957 -207.0625 488.5625 C-209 486.125 -209 486.125 -209 484.125 C-209.66 483.795 -210.32 483.465 -211 483.125 C-216.21305625 471.22725918 -216.20799271 457.18354057 -211.9140625 445.05859375 C-206.32200408 432.66232551 -196.53513777 422.25534829 -183.75 417.375 C-172.60608832 414.05472494 -161.71957831 414.53230616 -151.12109375 419.46484375 C-140.38577242 425.71057124 -132.91687222 435.87979512 -125.24609375 445.41015625 C-122.9116941 448.23173495 -120.48009402 450.93090712 -118 453.625 C-114.72581577 457.18170244 -111.59357567 460.79661811 -108.5625 464.5625 C-104.49161894 469.60606945 -100.18862819 474.36543671 -95.7734375 479.10546875 C-93.57964155 481.47014692 -91.44774787 483.88363849 -89.32666016 486.3137207 C-88.7019986 487.02897415 -88.07733704 487.7442276 -87.43374634 488.4811554 C-86.96061005 489.02362411 -86.48747375 489.56609283 -86 490.125 C-86.00037972 489.16082226 -86.00075944 488.19664452 -86.00115067 487.20324928 C-86.0235698 430.05195709 -86.04068978 372.90066518 -86.05106533 315.74936949 C-86.05231263 308.88637978 -86.05360919 302.02339008 -86.05493164 295.16040039 C-86.0550624 294.4774623 -86.05519316 293.79452422 -86.05532788 293.09089104 C-86.05958674 270.96792809 -86.06709619 248.8449677 -86.07629722 226.7220063 C-86.08600568 203.33641885 -86.09199772 179.95083353 -86.09408849 156.5652439 C-86.09546026 142.56022678 -86.09979215 128.55521701 -86.10791647 114.55020215 C-86.11320442 104.9450518 -86.11479962 95.33990523 -86.11350138 85.73475353 C-86.11286121 80.19403393 -86.11383922 74.65332717 -86.11920547 69.11260986 C-86.12408721 64.03497912 -86.12430738 58.9573698 -86.12089889 53.87973806 C-86.12047789 52.04775533 -86.12173321 50.21577125 -86.12488318 48.38379119 C-86.18303455 12.46002414 -86.18303455 12.46002414 -74.35546875 0.28515625 C-55.60673613 -16.90895509 -19.25544352 -14.96282872 0 0 Z " fill="#F15E4D" transform="translate(771,247.875)"/>
<path d="M0 0 C5.34080863 5.18503505 10.11503937 10.78850828 14.75390625 16.6015625 C17.43840811 19.93176003 20.20775574 23.17814677 23 26.41796875 C24.02484824 27.60928153 25.04958767 28.80068793 26.07421875 29.9921875 C26.58130371 30.58177246 27.08838867 31.17135742 27.61083984 31.77880859 C33.3369092 38.45029798 39.01679274 45.1580519 44.5625 51.98046875 C48.52008188 56.844259 52.59042446 61.60178106 56.68334961 66.35131836 C60.45834391 70.74097225 64.13228461 75.20411646 67.78125 79.69921875 C70.51802049 83.01983361 73.3160295 86.28343657 76.125 89.54296875 C79.67953161 93.66765079 83.19292143 97.81504587 86.625 102.04296875 C89.95521961 106.14446005 93.3614177 110.1685784 96.8125 114.16796875 C101.96021417 120.13732933 106.98538556 126.20023877 111.9831543 132.29541016 C115.49546807 136.57527079 119.0376266 140.8258933 122.625 145.04296875 C123.9605481 146.621412 125.29525943 148.20055998 126.62988281 149.77978516 C127.70946385 151.05292923 128.79259329 152.32306731 129.87792969 153.59130859 C142.59599328 168.47790529 150.57076635 180.2104452 149.125 200.54296875 C147.16807746 212.21872509 140.33700759 222.30685365 130.84375 229.19921875 C119.13017974 236.76114385 106.50446443 238.34008416 92.9375 235.41796875 C76.56366322 230.66634553 66.59083633 217.06604764 56.33203125 204.21875 C53.86521217 201.22800474 51.26529783 198.37934852 48.625 195.54296875 C44.32261006 190.91884911 40.28953306 186.13801784 36.32421875 181.21875 C31.53996286 175.39776371 26.46469088 169.85620139 21.125 164.54296875 C21.19550221 165.50336406 21.26600443 166.46375937 21.33864307 167.45325756 C22.41619358 183.75289683 22.27512958 200.07494228 22.27038372 216.40118015 C22.27017747 220.83810472 22.27571927 225.27502302 22.28044128 229.71194458 C22.28869776 238.37755619 22.29149376 247.04316099 22.29205366 255.70877621 C22.29253081 262.7548283 22.29459538 269.80087817 22.29775429 276.84692955 C22.30654388 296.86195444 22.31117583 316.876974 22.31042381 336.89200083 C22.31038386 337.96783343 22.3103439 339.04366602 22.31030273 340.15209961 C22.31026185 341.22925713 22.31022097 342.30641464 22.31017885 343.4162133 C22.30977191 360.8942775 22.31935797 378.37232021 22.3334411 395.85037819 C22.34781655 413.83406618 22.35471078 431.81774368 22.35384732 449.80143756 C22.35351597 459.883293 22.35623678 469.96512585 22.36702538 480.04697609 C22.37614532 488.6235521 22.37829302 497.20009524 22.37151595 505.77667401 C22.36825952 510.14706353 22.3681625 514.51739005 22.3768692 518.88777351 C22.38477296 522.89641924 22.3832636 526.90495241 22.37458507 530.91359552 C22.37305868 532.35539417 22.37483334 533.79720139 22.38044515 535.23898993 C22.43091939 549.13891455 22.08417766 561.739431 14.125 573.54296875 C13.71765625 574.17589844 13.3103125 574.80882812 12.890625 575.4609375 C6.21717223 584.46185992 -4.80547237 590.25445225 -15.6940918 591.98730469 C-30.95758361 593.87209383 -45.21692066 591.91995009 -57.75 582.41796875 C-67.22325184 574.10470694 -72.08668939 563.84763607 -73.875 551.54296875 C-73.96624965 549.32006471 -74.00853224 547.09485116 -74.0136652 544.87008095 C-74.01650742 544.22157588 -74.01934964 543.57307082 -74.02227798 542.90491408 C-74.03059042 540.73498711 -74.03189047 538.56511377 -74.03321838 536.39517212 C-74.03778609 534.82256837 -74.04278642 533.24996583 -74.04818195 531.67736471 C-74.06174873 527.3583254 -74.06917719 523.03929395 -74.07560861 518.72023892 C-74.08361896 514.06180479 -74.09731456 509.40338698 -74.11032104 504.7449646 C-74.13207477 496.67469418 -74.1502233 488.6044221 -74.16592598 480.53413773 C-74.18863464 468.86584842 -74.21677611 457.1975772 -74.24624526 445.52930324 C-74.29390893 426.59848228 -74.33717644 407.66765393 -74.37768555 388.73681641 C-74.4170467 370.34683659 -74.45847442 351.95686335 -74.50268555 333.56689453 C-74.50540982 332.43341255 -74.50813409 331.29993057 -74.51094092 330.13210066 C-74.5246205 324.4457773 -74.53834075 318.75945405 -74.55208123 313.07313085 C-74.66602677 265.89642385 -74.77284039 218.71970264 -74.875 171.54296875 C-75.535 171.21296875 -76.195 170.88296875 -76.875 170.54296875 C-80.59669593 174.17027384 -84.02051376 177.95116907 -87.375 181.91796875 C-88.43060197 183.15788218 -89.48660604 184.39745338 -90.54296875 185.63671875 C-91.35967041 186.59578125 -91.35967041 186.59578125 -92.19287109 187.57421875 C-97.05157187 193.26080265 -101.96859652 198.89755459 -106.875 204.54296875 C-107.55433594 205.32542969 -108.23367187 206.10789062 -108.93359375 206.9140625 C-112.9118883 211.48037287 -116.97047386 215.96953843 -121.0546875 220.44140625 C-122.91176667 222.41020296 -122.91176667 222.41020296 -123.875 224.54296875 C-124.535 224.54296875 -125.195 224.54296875 -125.875 224.54296875 C-126.11089844 225.12949219 -126.34679687 225.71601563 -126.58984375 226.3203125 C-130.03965398 232.28670162 -137.92583431 236.22171171 -144.4140625 238.04296875 C-156.39440978 240.47707105 -168.34548561 239.99815802 -179.1875 233.85546875 C-187.83524356 228.07610647 -194.25005496 221.94109425 -198.875 212.54296875 C-199.2153125 211.87007812 -199.555625 211.1971875 -199.90625 210.50390625 C-204.08053366 200.49335562 -203.06811321 187.16793197 -199.1953125 177.2421875 C-195.42642872 169.53716178 -189.97506696 163.36914297 -184.1953125 157.109375 C-181.82585875 154.48861555 -179.59414378 151.7917688 -177.375 149.04296875 C-174.4668662 145.44819225 -171.48958668 141.96036247 -168.375 138.54296875 C-164.51040706 134.29726543 -160.86335916 129.91336521 -157.25 125.453125 C-153.3270319 120.64619863 -149.2995624 115.92826921 -145.28222656 111.20019531 C-142.9760458 108.48431137 -140.67571332 105.76348435 -138.375 103.04296875 C-135.60453924 99.7669927 -132.83274155 96.4921974 -130.0546875 93.22265625 C-125.80534079 88.21773895 -121.57819309 83.2011325 -117.4375 78.10546875 C-113.48223975 73.24453174 -109.41526529 68.48889315 -105.32324219 63.7434082 C-102.22073369 60.13750929 -99.18041477 56.4910205 -96.1875 52.79296875 C-93.38687605 49.33869828 -90.50837332 46.0050698 -87.5 42.73046875 C-83.95802884 38.85028854 -80.70471274 34.82438064 -77.5 30.66796875 C-73.05562535 24.91371426 -68.33822875 19.52474237 -63.3671875 14.22265625 C-61.26141639 11.95845722 -59.2440877 9.65463022 -57.25 7.29296875 C-50.18699146 -0.77904101 -43.19275661 -6.59172074 -32.6875 -9.26953125 C-20.00240895 -9.89338819 -9.89533112 -8.45674358 0 0 Z " fill="#F15E4D" transform="translate(272.875,92.45703125)"/>
<path d="M0 0 C7.3108322 0.31786227 13.14441688 3.61232746 18.609375 8.4140625 C24.7385752 15.18645037 27.15015069 23.89486557 27.14145851 32.76619053 C27.14460033 33.569342 27.14774214 34.37249346 27.15097916 35.19998285 C27.16036643 37.91405645 27.16261824 40.62809016 27.16494751 43.34217834 C27.17022629 45.29849868 27.17593858 47.25481789 27.18204916 49.2111358 C27.19761485 54.60483877 27.20693795 59.99853756 27.21526766 65.3922559 C27.2253065 71.20212039 27.24104272 77.01196976 27.25605774 82.82182312 C27.28455264 94.2101124 27.30764927 105.59840659 27.3288355 116.98671157 C27.34614195 126.23815392 27.36537468 135.48959039 27.38599777 144.74102592 C27.38892637 146.05556324 27.39185496 147.37010055 27.3948723 148.72447233 C27.39933581 150.72519801 27.40379934 152.7259237 27.4082709 154.72664937 C27.46414393 179.74271662 27.51420605 204.7587926 27.56168602 229.77487703 C27.60393624 252.01635281 27.65135685 274.25781196 27.703125 296.49926758 C27.7612285 321.47024213 27.81609463 346.44122032 27.86572587 371.41221327 C27.8710242 374.07240547 27.87632681 376.73259766 27.88163376 379.39278984 C27.88424359 380.70181172 27.88685343 382.0108336 27.88954235 383.35952281 C27.90820251 392.605476 27.92920436 401.8514222 27.9510994 411.09736824 C27.9777002 422.35691248 28.00075224 433.61645719 28.01918437 444.87601788 C28.02868815 450.62602738 28.03983079 456.37602167 28.05528831 462.12601852 C28.06937184 467.38182046 28.07888008 472.63760934 28.08461837 477.89342683 C28.08752449 479.80251569 28.09215304 481.7116028 28.09860714 483.62068296 C28.10707958 486.20035706 28.10946781 488.77996448 28.11022377 491.35965061 C28.11614204 492.49117287 28.11614204 492.49117287 28.12217987 493.64555416 C28.11415034 498.77169931 28.11415034 498.77169931 27 501 C26.34 501 25.68 501 25 501 C24.99902319 499.99372024 24.99804638 498.98744047 24.99703997 497.95066738 C24.95379617 453.60430793 24.90685171 409.25795337 24.84101868 364.91162109 C24.83952533 363.90461057 24.83952533 363.90461057 24.83800181 362.87725639 C24.81634348 348.28736311 24.7940208 333.69747092 24.77101372 319.10757971 C24.75973516 311.95274213 24.74860342 304.79790433 24.73754883 297.64306641 C24.73589498 296.57507557 24.73589498 296.57507557 24.73420772 295.48550916 C24.69853663 272.4060697 24.6725607 249.3266317 24.65161031 226.24717458 C24.6300306 202.53082892 24.59867413 178.81451581 24.55500887 155.09820003 C24.52688994 139.81439919 24.50737744 124.53063352 24.50065396 109.24680644 C24.49540571 99.23284949 24.47920763 89.21894791 24.45433434 79.20502061 C24.44030014 73.42389182 24.43115573 67.64286221 24.43499184 61.86171532 C24.43839662 56.57023566 24.42806847 51.278968 24.40676448 45.98753178 C24.40148678 44.07220077 24.40127194 42.1568478 24.40660437 40.24151695 C24.41311323 37.63871444 24.40121573 35.03661259 24.38476086 32.43386841 C24.39103755 31.68961174 24.39731425 30.94535508 24.40378115 30.17854518 C24.30281151 21.51191854 21.07822087 15.27184527 15.1875 8.98046875 C12.07700609 6.16436087 8.88834722 4.50062014 5 3 C4.01 2.5875 3.02 2.175 2 1.75 C1.34 1.5025 0.68 1.255 0 1 C0 0.67 0 0.34 0 0 Z " fill="#E73F2B" transform="translate(753,240)"/>
<path d="M0 0 C0.99 0 1.98 0 3 0 C3.82111592 4.30154383 4.12447528 8.35880276 4.12304783 12.73535728 C4.12420167 13.39061585 4.12535552 14.04587441 4.12654433 14.72098929 C4.12918855 16.91390269 4.12470696 19.10674248 4.12025452 21.2996521 C4.12069067 22.88875395 4.12156638 24.47785572 4.12284368 26.06695712 C4.12508003 30.43161456 4.12107909 34.79624747 4.11606562 39.16090178 C4.11174899 43.86840676 4.11320841 48.57591035 4.1139679 53.28341675 C4.11449236 61.43881941 4.11135364 69.59421407 4.10573006 77.74961472 C4.09760458 89.5409697 4.09499876 101.33232081 4.09374207 113.12367828 C4.0915532 132.25416662 4.08489757 151.3846507 4.07543945 170.51513672 C4.06626107 189.09912088 4.05918232 207.68310388 4.05493164 226.26708984 C4.05466892 227.4125198 4.05440619 228.55794977 4.05413551 229.73808973 C4.05283048 235.48434927 4.05156677 241.23060883 4.05032361 246.97686839 C4.03995613 294.65124854 4.02234229 342.32562406 4 390 C1.83602892 386.48375441 1.74636424 383.66030756 1.73828697 379.57320786 C1.73429091 378.92701048 1.73029485 378.2808131 1.72617769 377.61503398 C1.71517309 375.44084982 1.71840891 373.26691887 1.7215271 371.0927124 C1.71652595 369.52183311 1.71065069 367.95095639 1.70397437 366.38008332 C1.68813841 362.05650955 1.68474171 357.73300069 1.68332577 353.40940142 C1.67963799 348.74955924 1.66448564 344.08975294 1.65071106 339.42993164 C1.62841483 331.35416793 1.61341577 323.27841694 1.60334396 315.20262909 C1.58877125 303.52633551 1.5632384 291.85008624 1.53501268 280.17381862 C1.48951906 261.23079965 1.45291489 242.28777432 1.421875 223.34472656 C1.39169997 204.94106935 1.35735453 186.53742772 1.31738281 168.13378906 C1.31492126 166.99978164 1.31245972 165.86577421 1.30992357 164.69740292 C1.29754918 159.00853823 1.2850926 153.31967373 1.27259517 147.63080931 C1.1689889 100.4205613 1.07979835 53.21029384 1 6 C0.34 5.67 -0.32 5.34 -1 5 C-1 4.67 -1 4.34 -1 4 C-1.99 4.495 -1.99 4.495 -3 5 C-1.125 1.125 -1.125 1.125 0 0 Z " fill="#DC3F2D" transform="translate(197,258)"/>
<path d="M0 0 C0 3.43027108 -0.34106335 3.75291829 -2.52734375 6.1875 C-3.06810547 6.79851562 -3.60886719 7.40953125 -4.16601562 8.0390625 C-4.75060547 8.68617188 -5.33519531 9.33328125 -5.9375 10 C-7.13523973 11.3531716 -8.33184814 12.70734537 -9.52734375 14.0625 C-10.1188623 14.73023438 -10.71038086 15.39796875 -11.31982422 16.0859375 C-16.04831728 21.47265438 -20.65640824 26.98730321 -24.75 32.875 C-26.9614046 35.94639528 -29.32701726 38.32701726 -32 41 C-34.12288331 43.34106464 -36.18799425 45.73028444 -38.25 48.125 C-38.82355225 48.78878662 -39.39710449 49.45257324 -39.98803711 50.13647461 C-43.97171334 54.76316541 -47.85834743 59.46029719 -51.703125 64.203125 C-54.36417458 67.44345068 -57.08033477 70.63211624 -59.8125 73.8125 C-60.31845703 74.40168213 -60.82441406 74.99086426 -61.34570312 75.59790039 C-63.90587216 78.57518925 -66.47307038 81.5462122 -69.046875 84.51171875 C-72.05716687 87.98614184 -75.03614947 91.4859152 -78 95 C-78.49983398 95.58813477 -78.99966797 96.17626953 -79.51464844 96.78222656 C-90.74055692 110.08619965 -95.48658635 121.08434281 -94.23925781 138.74902344 C-93.26455987 147.9191408 -88.83874456 154.15877958 -83 161 C-81.9908286 162.32640524 -80.9879479 163.65771213 -80 165 C-88.60679638 161.12140077 -92.41690428 152.27496699 -96 144 C-99.15142 134.9444136 -97.72090177 122.41471504 -94.3203125 113.69921875 C-90.55142872 105.99419303 -85.10006696 99.82617422 -79.3203125 93.56640625 C-76.95085875 90.9456468 -74.71914378 88.24880005 -72.5 85.5 C-69.5918662 81.9052235 -66.61458668 78.41739372 -63.5 75 C-59.63540706 70.75429668 -55.98835916 66.37039646 -52.375 61.91015625 C-48.4520319 57.10322988 -44.4245624 52.38530046 -40.40722656 47.65722656 C-38.1010458 44.94134262 -35.80071332 42.2205156 -33.5 39.5 C-30.72953924 36.22402395 -27.95774155 32.94922865 -25.1796875 29.6796875 C-20.84391019 24.57275424 -16.53563655 19.45104982 -12.3125 14.25 C-8.34525848 9.37330058 -4.22094569 4.65799184 0 0 Z " fill="#E53E2A" transform="translate(168,156)"/>
<path d="M0 0 C9.74922685 0.41486072 16.25228681 6.78572467 22.76171875 13.53125 C25.8281917 16.91346798 28.70289684 20.42735136 31.55859375 23.98828125 C34.27266038 27.33635384 37.06215334 30.60997633 39.875 33.875 C40.89982207 35.06633529 41.92456149 36.2577417 42.94921875 37.44921875 C43.45630371 38.03880371 43.96338867 38.62838867 44.48583984 39.23583984 C50.2119092 45.90732923 55.89179274 52.61508315 61.4375 59.4375 C65.39508188 64.30129025 69.46542446 69.05881231 73.55834961 73.80834961 C77.33334391 78.1980035 81.00728461 82.66114771 84.65625 87.15625 C87.39302049 90.47686486 90.1910295 93.74046782 93 97 C96.55453161 101.12468204 100.06792143 105.27207712 103.5 109.5 C106.83021776 113.60148902 110.23636117 117.62565974 113.6875 121.625 C118.92007395 127.6912239 124.03169995 133.85077236 129.10424805 140.05126953 C132.6798858 144.41818123 136.31219042 148.72726594 140 153 C139.67 153.66 139.34 154.32 139 155 C133.26779898 148.87390452 127.66744419 142.76880062 122.6015625 136.0703125 C120.47391418 133.31993784 118.17459044 130.74420523 115.8671875 128.14453125 C112.97897124 124.82731216 110.22806369 121.40032321 107.453125 117.98828125 C104.37408467 114.23753944 101.23518787 110.54012383 98.09130859 106.84375 C95.141124 103.36833142 92.24368398 99.85587447 89.375 96.3125 C86.50573443 92.78463077 83.56094307 89.36280078 80.5 86 C76.63663065 81.75564094 72.99040897 77.37348325 69.37890625 72.9140625 C66.8087697 69.76575073 64.19307103 66.66026781 61.5625 63.5625 C60.64061728 62.47396487 59.7187423 61.38542319 58.796875 60.296875 C57.37970257 58.62457167 55.96068533 56.95396667 54.53710938 55.28710938 C53.12457353 53.63253258 51.71809774 51.97297138 50.3125 50.3125 C49.48363281 49.33925781 48.65476562 48.36601562 47.80078125 47.36328125 C46 45 46 45 46 43 C45.34 43 44.68 43 44 43 C42.62508701 41.49212839 41.32635538 39.91460239 40.0625 38.3125 C39.26199219 37.3121875 38.46148437 36.311875 37.63671875 35.28125 C37.2092334 34.74628906 36.78174805 34.21132812 36.34130859 33.66015625 C32.32717103 28.69180251 28.14298233 23.86076346 24 19 C23.33742188 18.21109375 22.67484375 17.4221875 21.9921875 16.609375 C15.44230862 8.9140016 9.66396094 4.3055802 0 1 C0 0.67 0 0.34 0 0 Z " fill="#E43B27" transform="translate(256,85)"/>
<path d="M0 0 C0.76699219 0.36609375 1.53398438 0.7321875 2.32421875 1.109375 C13.04676167 6.83255333 20.25698643 16.97569067 27.74609375 26.2734375 C31.65706078 31.00455533 35.84890499 35.48022221 40 40 C41.38160715 41.51483356 42.75741481 43.03499557 44.125 44.5625 C44.68445313 45.18253906 45.24390625 45.80257812 45.8203125 46.44140625 C47 48 47 48 47 50 C45 50 45 50 43.51953125 48.53125 C42.67455078 47.52578125 42.67455078 47.52578125 41.8125 46.5 C38.70077339 42.82607068 35.51847245 39.2313696 32.28515625 35.6640625 C31 34 31 34 31 32 C29.515 31.505 29.515 31.505 28 31 C26.5625 29.390625 26.5625 29.390625 25 27.25 C10.97200422 8.417947 10.97200422 8.417947 -10 -1 C-22.89383177 -2.22652383 -32.8358902 0.49473323 -42.9609375 8.5625 C-51.86055775 15.9733362 -56.75398668 24.53237432 -59 36 C-59.64863498 45.67962968 -59.55497596 56.21379791 -54.33203125 64.71484375 C-53.89246094 65.46894531 -53.45289063 66.22304688 -53 67 C-53.495 67.99 -53.495 67.99 -54 69 C-54.433125 68.0409375 -54.433125 68.0409375 -54.875 67.0625 C-55.82823451 64.84793921 -55.82823451 64.84793921 -58 64 C-63.21305625 52.10225918 -63.20799271 38.05854057 -58.9140625 25.93359375 C-53.73589557 14.45482487 -44.55088745 3.84325094 -32.71875 -0.91796875 C-21.88051869 -4.76554086 -10.49955674 -5.21871459 0 0 Z " fill="#E6402C" transform="translate(618,667)"/>
<path d="M0 0 C0.99 0 1.98 0 3 0 C4.17028515 5.55054911 4.13405155 10.9527628 4.11352539 16.59521484 C4.11367142 17.64947662 4.11381744 18.7037384 4.1139679 19.78994751 C4.11327299 23.263632 4.10550035 26.73726241 4.09765625 30.2109375 C4.09579057 32.62374848 4.09436737 35.03655984 4.09336853 37.44937134 C4.08955517 43.79181977 4.07973495 50.13424521 4.06866455 56.47668457 C4.05842505 62.95190113 4.05386547 69.42712142 4.04882812 75.90234375 C4.03811163 88.60157229 4.02124231 101.30078492 4 114 C3.67 114 3.34 114 3 114 C2.98969254 113.10417709 2.97938507 112.20835419 2.96876526 111.28538513 C2.8692444 102.6860558 2.76656559 94.08677052 2.66066074 85.48751736 C2.60636601 81.07055307 2.55313707 76.65358226 2.50268555 72.23657227 C2.24947429 50.14632437 1.83008767 28.076725 1 6 C0.34 5.67 -0.32 5.34 -1 5 C-1 4.67 -1 4.34 -1 4 C-1.99 4.495 -1.99 4.495 -3 5 C-1.125 1.125 -1.125 1.125 0 0 Z " fill="#DB2916" transform="translate(197,258)"/>
<path d="M0 0 C9.18892724 7.42934543 16.55414731 16.59333448 24.2434082 25.51220703 C27.99481017 29.86132014 31.80933125 34.14412146 35.70703125 38.36328125 C37 40 37 40 37 42 C37.66 42 38.32 42 39 42 C40.37212301 43.53195272 41.6715446 45.12921081 42.9375 46.75 C46.36600675 51.03977414 49.89068171 55.16196158 53.625 59.1875 C57.83078552 63.72401187 61.96147393 68.31365575 66 73 C65.67 73.66 65.34 74.32 65 75 C61.01834645 71.24879586 57.40801855 67.34354038 54 63.0625 C50.05312055 58.14917575 45.84048709 53.5676056 41.5 49 C36.48137113 43.71485695 31.7151951 38.34539535 27.171875 32.640625 C24.2841361 29.12963311 21.19482819 25.81968231 18.09814453 22.49487305 C14.22391433 18.30904073 10.61575474 13.94153117 7.0703125 9.47265625 C4.97236416 6.88297517 4.97236416 6.88297517 2.2421875 4.30859375 C0 2 0 2 0 0 Z " fill="#E33926" transform="translate(584,758)"/>
<path d="M0 0 C-0.9178125 0.40089844 -1.835625 0.80179688 -2.78125 1.21484375 C-12.11799727 5.46784091 -19.85708742 10.17418253 -23.9375 20.125 C-26.12986391 26.65853484 -26.18053917 33.61424527 -26.31640625 40.43359375 C-26.33718735 41.31153091 -26.35796844 42.18946808 -26.37937927 43.0940094 C-26.44431945 45.87509985 -26.50349927 48.65627785 -26.5625 51.4375 C-26.60573814 53.33269104 -26.64935405 55.2278735 -26.69335938 57.12304688 C-26.79994322 61.74861013 -26.90136408 66.37426071 -27 71 C-29.08174089 67.57546663 -29.24573356 64.91414725 -29.23046875 60.94140625 C-29.22853516 59.74966797 -29.22660156 58.55792969 -29.22460938 57.33007812 C-29.21236328 56.08677734 -29.20011719 54.84347656 -29.1875 53.5625 C-29.18685547 52.35400391 -29.18621094 51.14550781 -29.18554688 49.90039062 C-29.03786872 19.26537859 -29.03786872 19.26537859 -17.3828125 7.16796875 C-12.51353709 2.73772637 -6.80262635 -2.1111599 0 0 Z " fill="#E23A27" transform="translate(714,241)"/>
<path d="M0 0 C0.66 0 1.32 0 2 0 C3.37212301 1.53195272 4.6715446 3.12921081 5.9375 4.75 C9.32074328 8.98584231 12.80096091 13.03859474 16.5 17 C20.77776636 21.59559833 24.78127493 26.34887609 28.71875 31.2421875 C32.64073834 35.98349533 36.81872281 40.48701397 41 45 C40.505 45.99 40.505 45.99 40 47 C35.93504424 43.17031499 32.25135849 39.16554029 28.75 34.8125 C25.46680505 30.73084098 22.06778559 26.82967558 18.5 23 C14.11037054 18.28680309 9.98632447 13.41646737 5.97265625 8.375 C4.03477781 5.95567922 4.03477781 5.95567922 1.74609375 3.8125 C0 2 0 2 0 0 Z " fill="#E53C28" transform="translate(303,265)"/>
<path d="M0 0 C0 4.00952393 -1.43744913 5.08629947 -4 8.125 C-4.8146875 9.09566406 -5.629375 10.06632812 -6.46875 11.06640625 C-9.42490903 14.49244858 -12.420633 17.87819454 -15.46875 21.22265625 C-17.06839039 22.93262428 -17.06839039 22.93262428 -18 25 C-18.66 25 -19.32 25 -20 25 C-20.27328125 25.58950439 -20.5465625 26.17900879 -20.828125 26.78637695 C-21.96484874 28.93360073 -23.17292709 30.57884525 -24.75 32.41796875 C-25.2759375 33.03220703 -25.801875 33.64644531 -26.34375 34.27929688 C-27.16359375 35.22385742 -27.16359375 35.22385742 -28 36.1875 C-28.5465625 36.82880859 -29.093125 37.47011719 -29.65625 38.13085938 C-33.73967996 42.86983998 -33.73967996 42.86983998 -36 44 C-32.64298735 36.44232754 -26.15747916 30.21840071 -20.625 24.1875 C-16.45243268 19.61963683 -12.6432055 14.82433017 -8.89306641 9.90893555 C-6.14060085 6.33011707 -3.26048874 3.1256124 0 0 Z " fill="#E73E29" transform="translate(206,111)"/>
<path d="M0 0 C0.495 0.99 0.495 0.99 1 2 C0.05640625 2.01417969 -0.8871875 2.02835938 -1.859375 2.04296875 C-14.35365337 2.50711363 -23.67940525 5.28727012 -33 14 C-33.66 14 -34.32 14 -35 14 C-35.26554688 14.58265625 -35.53109375 15.1653125 -35.8046875 15.765625 C-37.03302996 18.06174228 -38.40314939 19.80356018 -40.125 21.75 C-40.93324219 22.67039062 -40.93324219 22.67039062 -41.7578125 23.609375 C-42.16773438 24.06828125 -42.57765625 24.5271875 -43 25 C-43.66 24.67 -44.32 24.34 -45 24 C-44.51789062 23.45730469 -44.03578125 22.91460938 -43.5390625 22.35546875 C-42.90742187 21.64003906 -42.27578125 20.92460938 -41.625 20.1875 C-40.68527344 19.12595703 -40.68527344 19.12595703 -39.7265625 18.04296875 C-37.859401 15.91196181 -37.859401 15.91196181 -36 13 C-35.34 13 -34.68 13 -34 13 C-33.67 12.01 -33.34 11.02 -33 10 C-30.671875 8.24609375 -30.671875 8.24609375 -27.75 6.4375 C-26.79609375 5.83808594 -25.8421875 5.23867188 -24.859375 4.62109375 C-16.72592044 0.00991391 -9.15365728 -0.14658882 0 0 Z " fill="#EA4532" transform="translate(873,663)"/>
<path d="M0 0 C10.94450222 0.35304846 18.43638935 5.5591118 25.8828125 13.36328125 C30.54442101 19.16879 35.67248615 26.27356338 35 34 C33.31627064 31.47440596 32.13229984 29.1763035 30.875 26.4375 C24.39706356 13.46268578 15.68537941 6.25185643 2.08984375 1.6640625 C1.40019531 1.44492187 0.71054687 1.22578125 0 1 C0 0.67 0 0.34 0 0 Z " fill="#E33D2A" transform="translate(875,665)"/>
<path d="M0 0 C0.66 0 1.32 0 2 0 C2.14695313 0.61746094 2.29390625 1.23492188 2.4453125 1.87109375 C5.25768442 12.49022222 11.25511696 22.06018945 20.90234375 27.6953125 C25.83840195 30.2213052 30.71005282 32.32576709 36 34 C36 34.33 36 34.66 36 35 C25.65252657 34.42514037 16.94049519 29.66046357 10 22 C5.33319814 15.81508187 0 8.07992525 0 0 Z " fill="#E43E2B" transform="translate(200,648)"/>
<path d="M0 0 C0.66 0.33 1.32 0.66 2 1 C-3.6654297 8.20918436 -9.67035777 14.96921688 -15.96069336 21.63183594 C-19.63859057 25.52850593 -23.2285016 29.47100587 -26.66796875 33.58203125 C-28 35 -28 35 -31 37 C-29.40250254 33.17677574 -26.95462971 30.61866622 -24.125 27.625 C-18.37406482 21.47339676 -12.89144023 15.11603537 -7.44287109 8.69677734 C-4.97107428 5.79001121 -2.48519868 2.89530827 0 0 Z " fill="#E83C29" transform="translate(826,688)"/>
<path d="M0 0 C0.99 0 1.98 0 3 0 C3.74984705 4.00091404 4.1195296 7.76749517 4.09765625 11.8359375 C4.09443359 12.89941406 4.09121094 13.96289062 4.08789062 15.05859375 C4.07951172 16.15300781 4.07113281 17.24742187 4.0625 18.375 C4.05798828 19.49261719 4.05347656 20.61023438 4.04882812 21.76171875 C4.03709244 24.50786804 4.02067363 27.25390586 4 30 C3.67 30 3.34 30 3 30 C2.66231828 26.93796326 2.33063107 23.87530542 2 20.8125 C1.90460938 19.94818359 1.80921875 19.08386719 1.7109375 18.19335938 C1.27309811 14.11207075 0.86378087 10.11211498 1 6 C0.34 5.67 -0.32 5.34 -1 5 C-1 4.67 -1 4.34 -1 4 C-1.99 4.495 -1.99 4.495 -3 5 C-1.125 1.125 -1.125 1.125 0 0 Z " fill="#E43D2B" transform="translate(197,258)"/>
<path d="M0 0 C5.28773223 4.16268282 9.33163823 8.70965332 13.51171875 13.97265625 C16.69393144 17.84426509 20.08551481 21.49245725 23.54589844 25.11572266 C27 28.78864168 27 28.78864168 27 31 C25 31 25 31 23.51953125 29.53125 C22.95621094 28.8609375 22.39289062 28.190625 21.8125 27.5 C18.70077339 23.82607068 15.51847245 20.2313696 12.28515625 16.6640625 C11 15 11 15 11 13 C10.01 12.67 9.02 12.34 8 12 C6.2109375 10.0390625 6.2109375 10.0390625 4.375 7.625 C3.76398437 6.83351563 3.15296875 6.04203125 2.5234375 5.2265625 C1 3 1 3 0 0 Z " fill="#E73B27" transform="translate(638,686)"/>
<path d="M0 0 C7.3108322 0.31786227 13.14441688 3.61232746 18.609375 8.4140625 C22.6941075 12.92743977 25.75386737 18.98487534 26.25 25.0625 C26.1675 25.701875 26.085 26.34125 26 27 C24 24 24 24 22.875 20.375 C20.37159317 13.55667586 15.28259525 7.85881747 8.8125 4.5625 C7.55167578 4.01788362 6.28131214 3.4944936 5 3 C4.01 2.5875 3.02 2.175 2 1.75 C1.34 1.5025 0.68 1.255 0 1 C0 0.67 0 0.34 0 0 Z " fill="#E53E2A" transform="translate(753,240)"/>
<path d="M0 0 C0.66 0 1.32 0 2 0 C3.43549726 1.59334239 4.79827327 3.25251082 6.125 4.9375 C10.26004419 10.11133163 14.55337136 15.0929575 19 20 C18.67 20.66 18.34 21.32 18 22 C11.30074743 15.68848552 3.76575545 8.50781786 0 0 Z " fill="#E5402D" transform="translate(565,736)"/>
<path d="M0 0 C0.66 0.33 1.32 0.66 2 1 C0.71372289 2.17260611 -0.57919783 3.3379283 -1.875 4.5 C-2.59429688 5.1496875 -3.31359375 5.799375 -4.0546875 6.46875 C-6 8 -6 8 -8 8 C-8.26554688 8.58265625 -8.53109375 9.1653125 -8.8046875 9.765625 C-10.03302996 12.06174228 -11.40314939 13.80356018 -13.125 15.75 C-13.93324219 16.67039062 -13.93324219 16.67039062 -14.7578125 17.609375 C-15.16773438 18.06828125 -15.57765625 18.5271875 -16 19 C-16.66 18.67 -17.32 18.34 -18 18 C-17.51789062 17.45730469 -17.03578125 16.91460938 -16.5390625 16.35546875 C-15.90742187 15.64003906 -15.27578125 14.92460938 -14.625 14.1875 C-13.68527344 13.12595703 -13.68527344 13.12595703 -12.7265625 12.04296875 C-10.859401 9.91196181 -10.859401 9.91196181 -9 7 C-8.34 7 -7.68 7 -7 7 C-6.67 6.01 -6.34 5.02 -6 4 C-4.04402816 2.60287726 -2.04563599 1.26220093 0 0 Z " fill="#E53C28" transform="translate(846,669)"/>
<path d="M0 0 C0 4.12615791 -1.70985737 5.47858355 -4.3125 8.625 C-5.51326172 10.09839844 -5.51326172 10.09839844 -6.73828125 11.6015625 C-9 14 -9 14 -12 15 C-10.59168351 10.51899299 -8.41176733 8.17373705 -5 5 C-3.6078125 3.6078125 -3.6078125 3.6078125 -2.1875 2.1875 C-1.1046875 1.1046875 -1.1046875 1.1046875 0 0 Z " fill="#EB402B" transform="translate(793,726)"/>
<path d="M0 0 C7.23820173 0.34467627 11.91590189 2.10214991 18 6 C13.82356045 7.39214652 11.16562207 5.70664266 7.3125 4.0625 C6.61060547 3.77181641 5.90871094 3.48113281 5.18554688 3.18164062 C3.45349225 2.46289687 1.72626219 1.73254669 0 1 C0 0.67 0 0.34 0 0 Z " fill="#E94330" transform="translate(875,665)"/>
<path d="M0 0 C0 3 0 3 -2.1875 5.3125 C-3.115625 6.199375 -4.04375 7.08625 -5 8 C-6.71439073 9.9645991 -8.35359305 11.97727146 -10 14 C-10.66 13.67 -11.32 13.34 -12 13 C-4.88610478 3.40546697 -4.88610478 3.40546697 0 0 Z " fill="#F46855" transform="translate(843,673)"/>
<path d="M0 0 C0 4.13781054 -1.71509607 5.20919996 -4.5 8.1875 C-5.3353125 9.08855469 -6.170625 9.98960937 -7.03125 10.91796875 C-7.6809375 11.60503906 -8.330625 12.29210937 -9 13 C-9 8.86218946 -7.28490393 7.79080004 -4.5 4.8125 C-3.6646875 3.91144531 -2.829375 3.01039063 -1.96875 2.08203125 C-0.99421875 1.05142578 -0.99421875 1.05142578 0 0 Z " fill="#E43A26" transform="translate(167,293)"/>
<path d="M0 0 C0.33 0.66 0.66 1.32 1 2 C-0.09966775 3.29549899 -1.20491801 4.58626071 -2.3125 5.875 C-2.92738281 6.59429687 -3.54226562 7.31359375 -4.17578125 8.0546875 C-6 10 -6 10 -9 12 C-7.55575365 8.76138697 -5.74227753 6.38030837 -3.375 3.75 C-2.74335937 3.04359375 -2.11171875 2.3371875 -1.4609375 1.609375 C-0.97882813 1.07828125 -0.49671875 0.5471875 0 0 Z " fill="#F56A57" transform="translate(97,242)"/>
<path d="M0 0 C2 1.375 2 1.375 4 3 C4 3.66 4 4.32 4 5 C4.66 5 5.32 5 6 5 C7.625 7 7.625 7 9 9 C8.67 9.66 8.34 10.32 8 11 C6.84501103 9.92643323 5.70132133 8.84070212 4.5625 7.75 C3.92441406 7.14671875 3.28632812 6.5434375 2.62890625 5.921875 C0.91483694 3.89951984 0.40641122 2.58729395 0 0 Z " fill="#E6402C" transform="translate(617,795)"/>
<path d="M0 0 C0 3 0 3 -1.53125 4.82421875 C-2.1809375 5.43910156 -2.830625 6.05398438 -3.5 6.6875 C-4.1496875 7.31011719 -4.799375 7.93273437 -5.46875 8.57421875 C-5.9740625 9.04472656 -6.479375 9.51523437 -7 10 C-7 5.69032084 -4.83274712 4.10253255 -2 1 C-1.34 0.67 -0.68 0.34 0 0 Z " fill="#F46655" transform="translate(830,687)"/>
<path d="M0 0 C0.33 0.66 0.66 1.32 1 2 C-0.98 4.31 -2.96 6.62 -5 9 C-5 4.61031544 -2.87194899 3.23094261 0 0 Z " fill="#F56857" transform="translate(207,112)"/>
<path d="M0 0 C3 1 3 1 3 1 Z " fill="#EA6757" transform="translate(123,332)"/>
<path d="M0 0 C2 1 2 1 2 1 Z " fill="#EA6352" transform="translate(643,829)"/>
<path d="" fill="#EC6555" transform="translate(0,0)"/>
<path d="" fill="#EC6656" transform="translate(0,0)"/>
<path d="" fill="#E66B59" transform="translate(0,0)"/>
<path d="M0 0 C2 1 2 1 2 1 Z " fill="#EA6956" transform="translate(106,332)"/>
<path d="" fill="#E96958" transform="translate(0,0)"/>
<path d="M0 0 C2 1 2 1 2 1 Z " fill="#E46D59" transform="translate(713,237)"/>
<path d="" fill="#645E4C" transform="translate(0,0)"/>
<path d="" fill="#E86C59" transform="translate(0,0)"/>
<path d="" fill="#E56956" transform="translate(0,0)"/>
<path d="" fill="#E66857" transform="translate(0,0)"/>
<path d="" fill="#E66757" transform="translate(0,0)"/>
<path d="" fill="#EB6855" transform="translate(0,0)"/>
<path d="" fill="#E86858" transform="translate(0,0)"/>
<path d="" fill="#EA6955" transform="translate(0,0)"/>
<path d="" fill="#EC6653" transform="translate(0,0)"/>
<path d="" fill="#E86856" transform="translate(0,0)"/>
<path d="" fill="#E86754" transform="translate(0,0)"/>
<path d="" fill="#ED6853" transform="translate(0,0)"/>
<path d="" fill="#ED6653" transform="translate(0,0)"/>
<path d="" fill="#EE6452" transform="translate(0,0)"/>
<path d="" fill="#EB6655" transform="translate(0,0)"/>
<path d="" fill="#EE6856" transform="translate(0,0)"/>
<path d="" fill="#ED6757" transform="translate(0,0)"/>
<path d="" fill="#EB6353" transform="translate(0,0)"/>
<path d="" fill="#EC6555" transform="translate(0,0)"/>
<path d="" fill="#EB6756" transform="translate(0,0)"/>
<path d="" fill="#EC6553" transform="translate(0,0)"/>
<path d="" fill="#E86855" transform="translate(0,0)"/>
<path d="" fill="#E96A58" transform="translate(0,0)"/>
<path d="" fill="#E56A57" transform="translate(0,0)"/>
<path d="" fill="#ED6B59" transform="translate(0,0)"/>
<path d="" fill="#EC6656" transform="translate(0,0)"/>
<path d="" fill="#EE6A56" transform="translate(0,0)"/>
<path d="" fill="#EB6656" transform="translate(0,0)"/>
<path d="" fill="#EC6554" transform="translate(0,0)"/>
<path d="" fill="#ED6455" transform="translate(0,0)"/>
<path d="" fill="#EB6654" transform="translate(0,0)"/>
<path d="" fill="#EA6857" transform="translate(0,0)"/>
<path d="" fill="#EB6656" transform="translate(0,0)"/>
<path d="" fill="#EC6756" transform="translate(0,0)"/>
<path d="" fill="#E76A59" transform="translate(0,0)"/>
<path d="" fill="#F26555" transform="translate(0,0)"/>
<path d="" fill="#F26958" transform="translate(0,0)"/>
<path d="" fill="#F36652" transform="translate(0,0)"/>
<path d="" fill="#F56555" transform="translate(0,0)"/>
<path d="" fill="#F26655" transform="translate(0,0)"/>
<path d="" fill="#F26A58" transform="translate(0,0)"/>
<path d="" fill="#E66B59" transform="translate(0,0)"/>
<path d="" fill="#F16454" transform="translate(0,0)"/>
<path d="" fill="#ED6A56" transform="translate(0,0)"/>
<path d="" fill="#E86B57" transform="translate(0,0)"/>
<path d="" fill="#E86B57" transform="translate(0,0)"/>
<path d="" fill="#E66B59" transform="translate(0,0)"/>
<path d="" fill="#E76C58" transform="translate(0,0)"/>
<path d="" fill="#EF6856" transform="translate(0,0)"/>
<path d="" fill="#EC6856" transform="translate(0,0)"/>
<path d="" fill="#E36F5B" transform="translate(0,0)"/>
<path d="" fill="#E86A58" transform="translate(0,0)"/>
<path d="" fill="#EE6555" transform="translate(0,0)"/>
<path d="" fill="#EA6658" transform="translate(0,0)"/>
<path d="" fill="#E76A58" transform="translate(0,0)"/>
<path d="" fill="#E66A5A" transform="translate(0,0)"/>
<path d="" fill="#E66C5A" transform="translate(0,0)"/>
<path d="" fill="#E66B57" transform="translate(0,0)"/>
<path d="" fill="#F06857" transform="translate(0,0)"/>
<path d="" fill="#EA6C5B" transform="translate(0,0)"/>
<path d="" fill="#E96C5B" transform="translate(0,0)"/>
<path d="" fill="#ED6A59" transform="translate(0,0)"/>
<path d="" fill="#E96757" transform="translate(0,0)"/>
<path d="" fill="#E96F5E" transform="translate(0,0)"/>
<path d="" fill="#F06B59" transform="translate(0,0)"/>
<path d="" fill="#E26758" transform="translate(0,0)"/>
<path d="" fill="#E06C5A" transform="translate(0,0)"/>
<path d="" fill="#E26957" transform="translate(0,0)"/>
<path d="" fill="#EC6859" transform="translate(0,0)"/>
<path d="" fill="#EC6A57" transform="translate(0,0)"/>
<path d="" fill="#EB6956" transform="translate(0,0)"/>
<path d="" fill="#E86A55" transform="translate(0,0)"/>
<path d="" fill="#EA6A57" transform="translate(0,0)"/>
<path d="" fill="#E96957" transform="translate(0,0)"/>
<path d="" fill="#EB6658" transform="translate(0,0)"/>
<path d="" fill="#F06553" transform="translate(0,0)"/>
<path d="" fill="#EC6854" transform="translate(0,0)"/>
<path d="" fill="#F16956" transform="translate(0,0)"/>
<path d="" fill="#E86655" transform="translate(0,0)"/>
<path d="" fill="#F16754" transform="translate(0,0)"/>
<path d="" fill="#F06553" transform="translate(0,0)"/>
<path d="" fill="#ED6654" transform="translate(0,0)"/>
<path d="" fill="#E66958" transform="translate(0,0)"/>
<path d="" fill="#ED6754" transform="translate(0,0)"/>
<path d="" fill="#E76958" transform="translate(0,0)"/>
<path d="" fill="#F26555" transform="translate(0,0)"/>
<path d="" fill="#EF6454" transform="translate(0,0)"/>
<path d="" fill="#EE5F4E" transform="translate(0,0)"/>
<path d="" fill="#F16755" transform="translate(0,0)"/>
<path d="" fill="#F46655" transform="translate(0,0)"/>
<path d="" fill="#F36856" transform="translate(0,0)"/>
<path d="" fill="#E36A59" transform="translate(0,0)"/>
<path d="" fill="#EA6654" transform="translate(0,0)"/>
<path d="" fill="#E36857" transform="translate(0,0)"/>
<path d="" fill="#E66A57" transform="translate(0,0)"/>
<path d="" fill="#EB6C58" transform="translate(0,0)"/>
<path d="" fill="#EC6755" transform="translate(0,0)"/>
<path d="" fill="#E76554" transform="translate(0,0)"/>
<path d="" fill="#EB6A55" transform="translate(0,0)"/>
<path d="" fill="#EB6956" transform="translate(0,0)"/>
<path d="" fill="#EA6754" transform="translate(0,0)"/>
<path d="" fill="#EB6553" transform="translate(0,0)"/>
<path d="" fill="#E76556" transform="translate(0,0)"/>
<path d="" fill="#E56A5A" transform="translate(0,0)"/>
<path d="" fill="#E96C5B" transform="translate(0,0)"/>
</svg>
