<?xml version="1.0" encoding="UTF-8"?>
<svg version="1.1" xmlns="http://www.w3.org/2000/svg" width="1024" height="1024">
<path d="M0 0 C47.59878593 -0.76361689 95.24962715 9.38659071 138.08984375 30.12890625 C138.88745117 30.51208008 139.68505859 30.89525391 140.50683594 31.29003906 C163.90744755 42.66748373 185.70724107 57.4608183 204.859375 75.08203125 C206.92280649 76.97561812 209.02558956 78.80716789 211.15234375 80.62890625 C218.3744192 86.95184781 224.78278877 93.74244049 230.75390625 101.2578125 C232.61682809 103.54752413 234.52074707 105.75591366 236.48046875 107.9609375 C252.0738682 125.7095392 264.11315802 146.80002099 274.08984375 168.12890625 C274.65832031 169.31355469 275.22679687 170.49820313 275.8125 171.71875 C287.31259912 196.33144792 294.4168503 223.2616849 298.08984375 250.12890625 C298.2597583 251.30332275 298.42967285 252.47773926 298.60473633 253.68774414 C300.21838376 265.4838865 300.44899724 277.17313478 300.40234375 289.06640625 C300.4001886 290.05679901 300.39803345 291.04719177 300.39581299 292.06759644 C300.28476316 323.93215698 295.8042353 354.99106462 285.08984375 385.12890625 C284.67726318 386.31830811 284.67726318 386.31830811 284.25634766 387.53173828 C271.26475937 424.68929282 251.14565603 458.82547635 224.35546875 487.6796875 C222.38226858 489.81278492 220.47689672 491.98249612 218.58984375 494.19140625 C211.98488214 501.75316136 204.84617076 508.52417712 197 514.78125 C194.40089447 516.87797809 191.87198176 519.03046473 189.34960938 521.21728516 C182.59969189 527.04584293 175.55894711 532.24404069 168.08984375 537.12890625 C167.50960449 537.51369141 166.92936523 537.89847656 166.33154297 538.29492188 C100.07736621 582.02303638 18.97581199 595.0518209 -58.34082031 579.30639648 C-100.44050197 570.2444498 -141.19424515 552.12867997 -174.91015625 525.12890625 C-175.84118164 524.38858154 -175.84118164 524.38858154 -176.79101562 523.63330078 C-195.36008975 508.84467692 -213.34246788 493.10183515 -227.53710938 473.95507812 C-229.02082052 471.9817212 -230.54670687 470.04672095 -232.08203125 468.11328125 C-239.35423249 458.90189781 -245.76470442 449.41484142 -251.66210938 439.26953125 C-252.82574134 437.27369301 -254.01325745 435.2943053 -255.20703125 433.31640625 C-276.32920725 397.75298922 -287.33574325 357.08512852 -290.91015625 316.12890625 C-290.98073242 315.32324219 -291.05130859 314.51757812 -291.12402344 313.6875 C-291.50045929 309.17026983 -291.74994706 304.65982228 -291.91015625 300.12890625 C-291.95140625 299.03449219 -291.99265625 297.94007813 -292.03515625 296.8125 C-293.36899293 223.53484735 -266.55059842 151.75559588 -217.91015625 97.12890625 C-217.44432129 96.60135742 -216.97848633 96.07380859 -216.49853516 95.53027344 C-195.43612613 71.78253191 -170.44062892 52.79005216 -142.91015625 37.12890625 C-142.15718262 36.69481445 -141.40420898 36.26072266 -140.62841797 35.81347656 C-109.96213862 18.28026213 -75.61417376 8.60724246 -40.91015625 3.12890625 C-40.1222168 3.00290039 -39.33427734 2.87689453 -38.52246094 2.74707031 C-25.75687052 0.76549317 -12.8883456 0.42489051 0 0 Z M-80.78515625 209.00390625 C-84.4434219 214.38370867 -85.16051439 219.02200328 -85.17085266 225.46046448 C-85.17467821 226.17668486 -85.17850376 226.89290524 -85.18244523 227.63082927 C-85.19272378 230.01901724 -85.18879299 232.40696247 -85.18481445 234.79516602 C-85.18916368 236.5120567 -85.19434754 238.22894544 -85.20030212 239.9458313 C-85.21367816 244.60064387 -85.21427253 249.25537518 -85.21173882 253.91020322 C-85.21066853 257.79709302 -85.21555378 261.68396641 -85.22034425 265.5708527 C-85.23143382 274.73889803 -85.23187941 283.90690238 -85.22583008 293.07495117 C-85.21978482 302.53399083 -85.23211657 311.99288194 -85.25340015 321.45189625 C-85.27100631 329.57518003 -85.27701921 337.69841647 -85.2737624 345.82171863 C-85.27194841 350.67264054 -85.27459764 355.5234564 -85.28847694 360.37436104 C-85.30103524 364.93394445 -85.29913019 369.49329575 -85.28606606 374.05287552 C-85.28369666 375.72622823 -85.28644795 377.39959719 -85.29468918 379.07293129 C-85.30512752 381.3570019 -85.29708019 383.64028937 -85.28437805 385.92433167 C-85.28454579 387.20243997 -85.28471354 388.48054827 -85.28488636 389.79738712 C-84.88151748 393.38351783 -84.07570248 395.27297128 -81.91015625 398.12890625 C-78.59618959 399.78588958 -75.48774167 399.64757924 -71.91015625 399.12890625 C-67.47920997 397.64675084 -63.27988077 395.6984902 -59.03515625 393.75390625 C-57.75479449 393.18146014 -56.47359964 392.61087433 -55.19165039 392.04199219 C-53.10242178 391.1146018 -51.01378019 390.1860519 -48.92732239 389.25244141 C-40.05057466 385.28170667 -31.11990829 381.43640409 -22.18475342 377.5993042 C-19.37572242 376.39097912 -16.56984472 375.17554407 -13.76416016 373.95947266 C-12.01999643 373.20833449 -10.2756992 372.4575062 -8.53125 371.70703125 C-7.73350662 371.35967926 -6.93576324 371.01232727 -6.11384583 370.65444946 C3.2120892 366.66245767 3.2120892 366.66245767 7.54296875 367.73828125 C8.4659375 368.1146875 9.38890625 368.49109375 10.33984375 368.87890625 C11.49226563 369.348125 12.6446875 369.81734375 13.83203125 370.30078125 C20.12942317 372.98091218 26.38398828 375.76121684 32.63916016 378.53808594 C45.29340313 384.14186783 58.06911708 389.45337235 70.84619141 394.76953125 C73.19315048 395.75311307 75.52781545 396.75501586 77.86035156 397.77148438 C82.20640327 399.59821914 84.42463304 399.73086892 89.08984375 399.12890625 C92.48039491 396.52139852 93.92095438 395.03462582 94.71346283 390.78456306 C94.71275032 389.50037924 94.71203781 388.21619541 94.71130371 386.89309692 C94.71769253 386.17505854 94.72408135 385.45702017 94.73066378 384.71722305 C94.74589855 382.31628233 94.72546453 379.91699596 94.70507812 377.51611328 C94.70857987 375.79275974 94.71423905 374.06940943 94.72189331 372.34606934 C94.73614549 367.66814408 94.71907427 362.99080636 94.69560814 358.31293726 C94.67550031 353.41548539 94.68137878 348.51805795 94.68371582 343.62057495 C94.68366224 335.3939241 94.66390124 327.16750283 94.63183594 318.94091797 C94.59496719 309.4359063 94.58615695 299.93119567 94.59313345 290.42612183 C94.5994444 281.27816913 94.5886716 272.13031945 94.56916809 262.98238754 C94.5610028 259.09180099 94.55828296 255.20126716 94.55986023 251.31067276 C94.56074081 246.72561085 94.54647641 242.14083388 94.5206337 237.55584717 C94.51348619 235.87528744 94.51138145 234.19469737 94.51475143 232.51412582 C94.51848101 230.21533819 94.50366832 227.91737533 94.48425293 225.61868286 C94.48052422 224.33374498 94.4767955 223.04880711 94.4729538 221.72493172 C93.63824598 213.89002736 89.97248317 209.32637401 83.96484375 204.37890625 C80.39199375 201.99700625 77.30123604 201.99816962 73.126297 201.98173523 C71.88002533 201.97457993 70.63375366 201.96742462 69.34971619 201.96005249 C67.96597315 201.95721224 66.58222984 201.95450051 65.19848633 201.9519043 C63.74306069 201.94563862 62.28763665 201.93899172 60.83221436 201.93199158 C56.04961255 201.91095843 51.26701046 201.90058882 46.484375 201.890625 C44.83678356 201.88657695 43.18919228 201.88246001 41.54160118 201.87827492 C33.79952643 201.85922364 26.0574612 201.84499337 18.31536752 201.83666295 C9.38523564 201.82689511 0.45535193 201.80058729 -8.47469252 201.76016206 C-15.38098012 201.72997369 -22.2871967 201.71519143 -29.19354898 201.71188194 C-33.3164177 201.70953423 -37.43902128 201.70061069 -41.56181908 201.67542076 C-45.44346156 201.65208769 -49.32466534 201.64792759 -53.20635986 201.65818214 C-54.62690505 201.65867638 -56.04747222 201.65238918 -57.46795082 201.6386261 C-66.7048744 201.55417518 -74.20399514 201.78410341 -80.78515625 209.00390625 Z " fill="#FE7E7E" transform="translate(507.91015625,215.87109375)"/>
<path d="M0 0 C14.37671154 -0.53028854 28.00533224 0.74020881 39.6328125 10.125 C49.36794219 19.19174765 53.8692925 29.15227588 54.875 42.2421875 C55.24196156 53.27396933 50.9056552 62.19731228 44.8125 71.25 C35.12396257 80.7232366 24.03681033 87.03011786 10.3125 87.25 C-2.04216855 87.09878007 -13.26433572 81.73566428 -22 73 C-30.59303334 61.25865703 -34.05024789 50.53603959 -33 36 C-30.80688788 24.55949793 -24.69176491 15.46612248 -15.4375 8.5 C-5.83401639 2 -5.83401639 2 0 2 C0 1.34 0 0.68 0 0 Z " fill="#FE7F7F" transform="translate(201,136)"/>
<path d="M0 0 C7.25865144 5.12665365 12.76487724 12.56136514 14.92578125 21.25 C16.57569028 31.60776227 15.13026673 40.97698296 9.36328125 49.875 C3.36507719 57.7931313 -4.93720156 62.21853106 -14.51171875 64.5625 C-23.51323319 65.68296823 -32.22340322 64.15120058 -39.69921875 58.875 C-48.41116696 51.71184258 -53.82278312 43.90103328 -55.38671875 32.5625 C-56.02392743 22.64691124 -52.93307323 14.45014925 -47.32421875 6.4375 C-34.96331109 -7.39314973 -15.66334887 -8.96440495 0 0 Z " fill="#FE7F7F" transform="translate(883.51171875,227.4375)"/>
<path d="M0 0 C6.4581748 3.7323218 10.82031326 8.69630921 13.08203125 15.8515625 C14.88498881 23.67903678 13.20747007 29.14438178 9.41015625 36.19140625 C5.71164192 41.6883525 0.79696269 44.86241996 -5.4375 46.9375 C-14.02404225 48.00659766 -21.40630643 47.21407383 -28.4375 41.9375 C-34.0161629 36.28924879 -36.46105155 30.53259009 -36.8125 22.625 C-36.63595566 15.767646 -35.03913901 10.75270639 -30.34375 5.671875 C-21.61109173 -2.42038833 -11.32221728 -5.2150819 0 0 Z " fill="#FE7F7F" transform="translate(177.4375,676.0625)"/>
<path d="M0 0 C4.33437068 2.25125718 6.84708673 4.8855797 9.0625 9.31640625 C10.32428441 14.53178183 10.43834906 18.46134068 8.25390625 23.41796875 C5.90994483 27.15293679 3.07753107 29.51293328 -0.9375 31.31640625 C-6.29516729 32.30294555 -10.47304465 32.03532069 -15.375 29.62890625 C-19.91115624 25.53530184 -22.6417192 22.3333704 -23.25 16.12890625 C-22.86612564 11.44563901 -21.65695673 8.14194171 -18.9375 4.31640625 C-13.3246504 -0.15096384 -7.03879613 -2.48344622 0 0 Z " fill="#FE8180" transform="translate(376.9375,841.68359375)"/>
<path d="M0 0 C3.52377819 2.22151234 5.45733709 4.15736694 7 8 C7.24137178 12.49756077 6.55333627 16.10321363 4.1875 19.9375 C0.90938851 23.02829084 -0.86037287 23.87337476 -5.375 24.375 C-9.72350969 23.92515417 -11.67276253 22.79790424 -15 20 C-17.03457402 17.19369101 -18.79425168 14.49772143 -19 11 C-17.3459077 5.85393507 -15.54374803 2.95343622 -11 0 C-7.14670271 -1.28443243 -3.87578783 -0.98408675 0 0 Z " fill="#FE8180" transform="translate(579,139)"/>
<path d="M0 0 C4.54633071 1.90311518 6.74665796 4.66023014 9 9 C9.60427117 13.22989818 9.29087919 15.39497128 7.4375 19.25 C4.43827814 22.63373748 2.37148565 23.83427049 -2 25 C-5.70642109 24.89430358 -8.66866488 24.06835534 -11.58203125 21.73046875 C-14.62387877 18.40810503 -16 15.47269888 -16 11 C-14.75250344 6.74383526 -13.5783025 4.51258631 -10.25 1.5625 C-6.43456971 -0.27184149 -4.18654012 -0.53283238 0 0 Z " fill="#FD7F7F" transform="translate(848,584)"/>
<path d="M0 0 C0.33 0 0.66 0 1 0 C0.52758342 7.57441248 -1.47210006 13.83957924 -4.25 20.875 C-4.68965088 21.9990625 -5.12930176 23.123125 -5.58227539 24.28125 C-19.19570029 58.39636515 -37.70811435 89.59639674 -62.734375 116.55078125 C-64.70757517 118.68387867 -66.61294703 120.85358987 -68.5 123.0625 C-75.10496161 130.62425511 -82.24367299 137.39527087 -90.08984375 143.65234375 C-92.13767602 145.3043534 -94.142501 146.96928405 -96.12890625 148.69140625 C-103.43200168 155.01935677 -110.94298266 160.65605993 -119 166 C-120.485 166.99 -120.485 166.99 -122 168 C-122.99 167.67 -123.98 167.34 -125 167 C-123.39583333 165.83333333 -121.79166667 164.66666667 -120.1875 163.5 C-119.176875 162.76265625 -118.16625 162.0253125 -117.125 161.265625 C-115.19661642 159.8675469 -113.2606027 158.4798426 -111.3125 157.109375 C-104.59039991 152.34788744 -98.36538324 147.14299196 -92.1640625 141.734375 C-89.50100675 139.41284945 -86.76214997 137.20297127 -84 135 C-81.13833918 132.28509102 -78.52553788 129.46039445 -76 126.4375 C-73.57976498 123.56073486 -70.9823527 121.30067209 -68 119 C-67.67 118.34 -67.34 117.68 -67 117 C-66.34 117 -65.68 117 -65 117 C-64.75378906 116.4328125 -64.50757813 115.865625 -64.25390625 115.28125 C-62.78764992 112.61366839 -61.02824198 110.71242537 -58.9375 108.5 C-51.28345576 100.12341399 -44.80530165 91.04810476 -38.91796875 81.36816406 C-37.99574829 79.87965311 -37.00387295 78.43471061 -36 77 C-35.34 77 -34.68 77 -34 77 C-33.57267578 75.90365234 -33.57267578 75.90365234 -33.13671875 74.78515625 C-30.45762182 68.22090843 -27.0802367 62.07383352 -23.4375 56 C-20.87857051 51.66526168 -18.79770605 47.42260665 -17.03515625 42.71484375 C-15.74464129 39.33028565 -14.31392775 36.01076884 -12.875 32.6875 C-11.19868875 28.8094017 -9.56357872 24.92464539 -8 21 C-7.18868436 19.0828317 -6.37612084 17.16619114 -5.5625 15.25 C-3.46068773 10.22554936 -1.64378233 5.19089158 0 0 Z " fill="#FD7673" transform="translate(795,587)"/>
<path d="M0 0 C0.66 0 1.32 0 2 0 C2 0.66 2 1.32 2 2 C2.66 2 3.32 2 4 2 C4 3.65 4 5.3 4 7 C4.99 7.33 5.98 7.66 7 8 C8.61982805 10.3896179 10.10524808 12.76430065 11.5625 15.25 C15.32694565 21.50340523 19.35760042 27.34081697 23.95141602 33.01269531 C27 36.81068961 27 36.81068961 27 39 C27.66 39 28.32 39 29 39 C30.4963024 40.86645688 31.90565197 42.75494346 33.3125 44.6875 C38.525803 51.57819781 44.39476728 57.70834853 50.5 63.8125 C51.36536377 64.68285889 52.23072754 65.55321777 53.12231445 66.44995117 C58.38659522 71.65978239 63.8464684 76.47380242 69.63330078 81.09643555 C71.6034073 82.68101575 73.50220616 84.30315879 75.375 86 C79.55007465 89.61439316 84.14985224 92.64966468 88.70703125 95.75390625 C92.42824637 98.29210162 96.10662165 100.88722836 99.78125 103.4921875 C102.13545131 105.09204966 104.54682251 106.55746253 107 108 C105.34375 108.7109375 105.34375 108.7109375 103 109 C100.40625 107.6640625 100.40625 107.6640625 97.5 105.625 C96.43265625 104.87863281 95.3653125 104.13226562 94.265625 103.36328125 C93.17573398 102.57738876 92.08715649 101.78967094 91 101 C90.04609375 100.31292969 89.0921875 99.62585938 88.109375 98.91796875 C65.42222209 82.21253785 43.22243582 63.55384388 26.37304688 40.82617188 C24.88933573 38.85281495 23.36344938 36.9178147 21.828125 34.984375 C16.0293948 27.63777998 10.64448093 20.17101425 5.75 12.1875 C5.28400391 11.42856445 4.81800781 10.66962891 4.33789062 9.88769531 C2.3614574 6.58516808 0.79930113 3.79563143 0 0 Z " fill="#FD7774" transform="translate(254,649)"/>
<path d="M0 0 C2.9321886 2.56566502 3.84783338 4.10602112 4.5 7.9375 C3.87263356 11.78011945 2.39792409 13.96733129 0 17 C-2.82001327 18.41000664 -4.87007255 18.24548451 -8 18 C-10.77835049 16.73711341 -12.49102772 15.6477829 -14.375 13.25 C-15.30633759 9.89718469 -14.78030325 7.36130631 -14 4 C-10.73118652 -1.64613237 -5.93809336 -1.73244172 0 0 Z " fill="#FC8180" transform="translate(792,783)"/>
<path d="M0 0 C2.57714479 2.32774368 2.95176662 3.53695953 3.3125 7 C3.00703382 9.93247534 2.6415277 11.58090654 1 14 C-2.75047482 16.50031654 -4.55856266 16.53603554 -9 16 C-11.67916598 13.9032614 -13.40092726 12.12326139 -15 9.125 C-15 5.54288793 -13.71754627 3.09158328 -12 0 C-7.79708956 -2.91868781 -4.55010673 -1.85374719 0 0 Z " fill="#FA8180" transform="translate(124,430)"/>
<path d="M0 0 C2.47740843 2.23765923 3.80316583 4.65381903 4 8 C1.66666667 13.66666667 1.66666667 13.66666667 -1 15 C-4.375 15.375 -4.375 15.375 -8 15 C-10.5 12.9375 -10.5 12.9375 -12 10 C-11.94021398 6.53241058 -11.60965977 4.11173251 -9.9375 1.0625 C-6.7501332 -0.68541083 -3.53510338 -0.67159584 0 0 Z " fill="#FB8180" transform="translate(622,835)"/>
<path d="M0 0 C-0.33 0.99 -0.66 1.98 -1 3 C-13.76954828 4.86738614 -26.47279932 6.26391834 -39.375 6.75 C-40.48399658 6.79439209 -41.59299316 6.83878418 -42.7355957 6.88452148 C-49.24564138 7.08606631 -55.54037267 6.84295333 -62 6 C-61.67 5.34 -61.34 4.68 -61 4 C-59.90051025 3.970271 -59.90051025 3.970271 -58.77880859 3.93994141 C-46.01702171 3.57964139 -33.27907467 3.17669249 -20.5625 2 C-19.66515137 1.9170166 -18.76780273 1.8340332 -17.84326172 1.74853516 C-0.05331031 -0.00123977 -0.05331031 -0.00123977 0 0 Z " fill="#FE7674" transform="translate(563,795)"/>
<path d="M0 0 C4.34959054 2.22602171 6.86011035 4.88037695 9.07421875 9.30859375 C10.33600316 14.52396933 10.45006781 18.45352818 8.265625 23.41015625 C5.92382754 27.14167613 3.09154601 29.51655071 -0.92578125 31.30859375 C-5.70689344 32.10764703 -10.10045362 32.51220744 -14.25390625 29.7734375 C-14.805625 29.29003906 -15.35734375 28.80664062 -15.92578125 28.30859375 C-15.21292969 28.41558594 -14.50007813 28.52257812 -13.765625 28.6328125 C-7.47589606 29.42008678 -3.43226436 29.58905177 2.07421875 26.30859375 C2.73421875 25.31859375 3.39421875 24.32859375 4.07421875 23.30859375 C4.73421875 23.30859375 5.39421875 23.30859375 6.07421875 23.30859375 C7.25975173 19.60380318 7.34564551 16.17642501 7.07421875 12.30859375 C5.64800191 9.59732991 5.64800191 9.59732991 4.07421875 7.30859375 C4.07421875 6.31859375 4.07421875 5.32859375 4.07421875 4.30859375 C-3.41659355 1.99325176 -9.3897274 2.32274172 -16.92578125 4.30859375 C-16.92578125 4.96859375 -16.92578125 5.62859375 -16.92578125 6.30859375 C-17.58578125 6.30859375 -18.24578125 6.30859375 -18.92578125 6.30859375 C-19.25578125 7.29859375 -19.58578125 8.28859375 -19.92578125 9.30859375 C-20.25578125 8.64859375 -20.58578125 7.98859375 -20.92578125 7.30859375 C-15.15661779 1.03038645 -8.62175222 -3.0954364 0 0 Z " fill="#F97876" transform="translate(376.92578125,841.69140625)"/>
<path d="M0 0 C0.33 0 0.66 0 1 0 C1.3795392 27.32098329 1.3795392 27.32098329 0.1875 38.25 C0.11740723 38.93175293 0.04731445 39.61350586 -0.02490234 40.31591797 C-0.64290794 45.24145956 -2.14757667 49.43238083 -4 54 C-5.2340054 51.5319892 -4.97656394 50.29894487 -4.6953125 47.5703125 C-4.60636719 46.69246094 -4.51742187 45.81460938 -4.42578125 44.91015625 C-4.32652344 43.99105469 -4.22726562 43.07195313 -4.125 42.125 C-3.98771484 40.75794922 -3.98771484 40.75794922 -3.84765625 39.36328125 C-3.13365887 32.49482755 -3.13365887 32.49482755 -2.48193359 30.08203125 C-1.85392738 27.3689426 -1.79861903 24.77528316 -1.71875 21.9921875 C-1.66267578 20.26548828 -1.66267578 20.26548828 -1.60546875 18.50390625 C-1.53492938 16.0768295 -1.46461834 13.6497461 -1.39453125 11.22265625 C-1.33845703 9.49982422 -1.33845703 9.49982422 -1.28125 7.7421875 C-1.25095703 6.6888623 -1.22066406 5.63553711 -1.18945312 4.55029297 C-1 2 -1 2 0 0 Z " fill="#FE7674" transform="translate(807,500)"/>
<path d="M0 0 C0.6796875 1.6953125 0.6796875 1.6953125 1 4 C-3.44718518 13.42305672 -11.02418251 18.53876718 -20.375 22.375 C-28.4106111 25.07604575 -36.06083116 24.82281559 -44 22 C-43.505 20.515 -43.505 20.515 -43 19 C-41.68 19.33 -40.36 19.66 -39 20 C-39 20.66 -39 21.32 -39 22 C-37.11141062 21.75963408 -35.22306092 21.51724146 -33.3359375 21.265625 C-31 21 -31 21 -28.8515625 20.921875 C-21.89828252 20.57044569 -16.82571541 17.64456756 -11 14 C-10.071875 13.4225 -9.14375 12.845 -8.1875 12.25 C-4.7014983 8.66439825 -2.41730883 4.35281727 0 0 Z " fill="#FB7976" transform="translate(895,268)"/>
<path d="M0 0 C0 0.33 0 0.66 0 1 C-1.0621875 0.97679687 -2.124375 0.95359375 -3.21875 0.9296875 C-14.96150907 0.74638048 -25.26558242 1.36188296 -34.6875 9.25 C-38.99107428 14.367764 -42.21299386 19.50179585 -44 26 C-44.33 26 -44.66 26 -45 26 C-44.54100068 20.37725829 -43.12944274 16.67165013 -40 12 C-39.443125 11.154375 -38.88625 10.30875 -38.3125 9.4375 C-28.67451471 -0.72145747 -13.31500828 -5.75784142 0 0 Z " fill="#FB7977" transform="translate(875,224)"/>
<path d="M0 0 C-0.33 0.66 -0.66 1.32 -1 2 C-1.80695312 1.93941406 -2.61390625 1.87882813 -3.4453125 1.81640625 C-17.94642521 0.81579868 -32.47331248 0.44119139 -47 0 C-46.67 -0.66 -46.34 -1.32 -46 -2 C-31.38887434 -4.93242487 -14.49026816 -2.7235358 0 0 Z " fill="#FE7675" transform="translate(552,219)"/>
<path d="M0 0 C2.80741246 2.41732671 3.880685 4.73975378 5.15625 8.19140625 C5.53910156 9.21943359 5.92195312 10.24746094 6.31640625 11.30664062 C6.70699219 12.38107422 7.09757813 13.45550781 7.5 14.5625 C7.89058594 15.60986328 8.28117188 16.65722656 8.68359375 17.73632812 C15.22491368 35.45515602 15.22491368 35.45515602 15 42 C13 41 13 41 12.2890625 39.171875 C11.96035156 37.97304688 11.96035156 37.97304688 11.625 36.75 C11.3671875 35.84507812 11.109375 34.94015625 10.84375 34.0078125 C10.5653125 33.01523437 10.286875 32.02265625 10 31 C7.78739086 23.35123911 5.316355 16.02309364 2.05078125 8.75390625 C0.93730546 5.83568903 0.41399545 3.08904295 0 0 Z " fill="#FD7674" transform="translate(782,387)"/>
<path d="M0 0 C2.02918682 3.04378023 2.73558133 5.22638567 3.65625 8.734375 C3.95660156 9.86617187 4.25695312 10.99796875 4.56640625 12.1640625 C5.02853516 13.93910156 5.02853516 13.93910156 5.5 15.75 C6.11418024 18.07823137 6.72875266 20.40635933 7.34375 22.734375 C7.62992188 23.82298828 7.91609375 24.91160156 8.2109375 26.03320312 C9.09814967 29.36903303 10.03130044 32.6870475 11 36 C10.01 36 9.02 36 8 36 C6.85067458 32.10518824 5.70615396 28.20898052 4.5625 24.3125 C4.23701172 23.20970703 3.91152344 22.10691406 3.57617188 20.97070312 C3.26357422 19.90400391 2.95097656 18.83730469 2.62890625 17.73828125 C2.34088135 16.75899658 2.05285645 15.77971191 1.75610352 14.77075195 C0.37413857 9.706522 -0.10327556 5.26705353 0 0 Z " fill="#FD7674" transform="translate(223,565)"/>
<path d="M0 0 C1.70840281 1.63412443 2.93453047 2.86906094 4 5 C4.0442316 9.50277673 3.56748767 13.0802786 1.1875 16.9375 C-2.15827122 20.0920843 -3.85824912 20.91844637 -8.5 21.25 C-11.6845203 21.02253426 -13.36015235 20.6895025 -16 19 C-16 18.34 -16 17.68 -16 17 C-14.7625 17.309375 -14.7625 17.309375 -13.5 17.625 C-8.98799198 18.10842943 -6.2907967 17.50177884 -2 16 C0.36858217 12.73377045 0.21052344 9.68407813 0.125 5.75 C0.09792969 4.13351563 0.09792969 4.13351563 0.0703125 2.484375 C0.04710937 1.66453125 0.02390625 0.8446875 0 0 Z " fill="#F97A78" transform="translate(582,142)"/>
<path d="M0 0 C-1.36497589 3.29138814 -2.58575139 4.68195674 -5.7109375 6.3671875 C-6.45593506 6.77541748 -7.20093262 7.18364746 -7.96850586 7.60424805 C-8.76264893 8.02359619 -9.55679199 8.44294434 -10.375 8.875 C-11.18267822 9.31046143 -11.99035645 9.74592285 -12.82250977 10.19458008 C-15.20887703 11.474983 -17.603736 12.73824359 -20 14 C-21.25142898 14.67294115 -22.5027448 15.34609283 -23.75390625 16.01953125 C-29.6744403 19.12145522 -29.6744403 19.12145522 -32 20 C-32.99 19.67 -33.98 19.34 -35 19 C-32.08671455 16.65035719 -29.24551734 15.10124699 -25.8125 13.625 C-21.29793891 11.63399383 -17.02954124 9.41699982 -12.77734375 6.91796875 C-11 6 -11 6 -9 6 C-9 5.34 -9 4.68 -9 4 C-2.25 0 -2.25 0 0 0 Z " fill="#FD7774" transform="translate(669,755)"/>
<path d="M0 0 C2.18586961 2.18586961 2.9728279 3.90756285 4.20703125 6.7265625 C4.62919922 7.67660156 5.05136719 8.62664063 5.48632812 9.60546875 C6.35991873 11.59452777 7.23234403 13.58409906 8.10351562 15.57421875 C10.43309953 20.81137711 12.87293682 25.70215455 16.08862305 30.45458984 C17 32 17 32 17 34 C16.01 34 15.02 34 14 34 C11.30864345 28.67876459 8.64167637 23.34607748 6 18 C5.68063477 17.35546875 5.36126953 16.7109375 5.03222656 16.046875 C4.17658709 14.30772505 3.33782286 12.56030271 2.5 10.8125 C2.0153125 9.80832031 1.530625 8.80414062 1.03125 7.76953125 C-0.01593137 4.95721461 -0.21722939 2.97061194 0 0 Z " fill="#FD7673" transform="translate(238,614)"/>
<path d="M0 0 C0.33 0.66 0.66 1.32 1 2 C-0.42660554 4.56003155 -1.90391669 6.9859003 -3.5 9.4375 C-4.18533813 10.51197388 -4.18533813 10.51197388 -4.88452148 11.6081543 C-6.24851694 13.74392493 -7.62266113 15.87281612 -9 18 C-10.3568572 20.10246551 -11.71050904 22.20689404 -13.0625 24.3125 C-13.88427734 25.57513672 -13.88427734 25.57513672 -14.72265625 26.86328125 C-16.13922945 29.05876503 -16.13922945 29.05876503 -17 32 C-17.66 32 -18.32 32 -19 32 C-18.43982179 27.32295657 -16.36889651 23.80891099 -13.9375 19.875 C-13.53917969 19.22063965 -13.14085937 18.5662793 -12.73046875 17.89208984 C-4.42456288 4.42456288 -4.42456288 4.42456288 0 0 Z " fill="#FD7773" transform="translate(272,336)"/>
<path d="M0 0 C0.33 0.66 0.66 1.32 1 2 C0.236875 2.7425 -0.52625 3.485 -1.3125 4.25 C-3.95571199 6.823554 -3.95571199 6.823554 -5.6875 9.3125 C-6.3371875 10.1478125 -6.3371875 10.1478125 -7 11 C-7.66 11 -8.32 11 -9 11 C-9.24878906 11.55429687 -9.49757813 12.10859375 -9.75390625 12.6796875 C-11.22550852 15.41991242 -12.99263069 17.69844052 -14.9375 20.125 C-15.62714844 20.99382812 -16.31679688 21.86265625 -17.02734375 22.7578125 C-19 25 -19 25 -22 27 C-20.41780438 21.83015062 -17.19083327 18.16448977 -13.8125 14.0625 C-13.26013672 13.37220703 -12.70777344 12.68191406 -12.13867188 11.97070312 C-8.44193201 7.44101606 -4.5392764 3.68563865 0 0 Z " fill="#FD7672" transform="translate(296,308)"/>
<path d="M0 0 C0.680625 0.06703125 1.36125 0.1340625 2.0625 0.203125 C4.41824897 0.86805414 5.42358391 1.9174163 7 3.75 C6.40832031 3.66621094 5.81664062 3.58242187 5.20703125 3.49609375 C-0.45614446 2.76625545 -4.55334667 2.93444889 -10 4.75 C-12.11049084 12.82173543 -12.11049084 12.82173543 -10 20.75 C-13 18.75 -13 18.75 -14.375 15.5625 C-15.14939464 10.83869269 -14.3981915 8.85013385 -12 4.75 C-8.21608417 1.15527996 -5.24629073 -0.5961694 0 0 Z " fill="#F87A78" transform="translate(575,138.25)"/>
<path d="M0 0 C0 0.66 0 1.32 0 2 C-3.49523307 3.01718857 -6.99682209 4.0105528 -10.5 5 C-11.48226562 5.28617188 -12.46453125 5.57234375 -13.4765625 5.8671875 C-19.18332 7.4650796 -24.07456616 8.33859622 -30 8 C-29.67 7.34 -29.34 6.68 -29 6 C-26.87501826 5.43550555 -24.72232952 4.97400681 -22.5625 4.5625 C-17.30290352 3.51272311 -12.26247267 2.26721347 -7.18359375 0.55078125 C-4.72192447 -0.0701407 -2.52882755 -0.09333107 0 0 Z " fill="#FD7674" transform="translate(604,786)"/>
<path d="M0 0 C0.66 0.33 1.32 0.66 2 1 C1.34 10.57 0.68 20.14 0 30 C-0.66 30 -1.32 30 -2 30 C-2.25 4.5 -2.25 4.5 0 0 Z " fill="#FD7775" transform="translate(219,471)"/>
<path d="M0 0 C8.77358567 3.49757807 16.16085663 16.19407935 21 24 C21 24.99 21 25.98 21 27 C20.34 27 19.68 27 19 27 C17.87890625 25.5234375 17.87890625 25.5234375 16.5625 23.375 C13.29097454 18.26882255 9.59266868 13.58356419 5.78344727 8.87451172 C3.50988599 6.03784052 1.42730903 3.36081486 0 0 Z " fill="#FD7673" transform="translate(738,319)"/>
<path d="M0 0 C8.90498076 -0.49986378 17.42326776 0.55910231 26 3 C26.33 3.66 26.66 4.32 27 5 C20.82479744 5.33682923 15.07161222 4.66390762 9 3.625 C8.23373291 3.49891357 7.46746582 3.37282715 6.67797852 3.24291992 C4.77104425 2.900266 2.88255576 2.45803254 1 2 C0.67 1.34 0.34 0.68 0 0 Z " fill="#FD7674" transform="translate(453,794)"/>
<path d="M0 0 C4.95574299 1.65191433 6.55484392 6.33777029 9.125 10.6875 C9.67542969 11.58662109 10.22585938 12.48574219 10.79296875 13.41210938 C13.47597854 17.90466753 15.6981821 21.64717084 16 27 C13.74665902 24.93125475 12.39655137 23.08628242 11.125 20.3125 C9.73669866 17.41402355 8.23819526 14.70326685 6.5 12 C4.0199415 8.13018735 1.9956265 4.13907719 0 0 Z " fill="#FD7774" transform="translate(759,347)"/>
<path d="M0 0 C2.20089943 2.20089943 2.42787989 3.04810454 3.0703125 6 C3.2446582 6.80074951 3.41900391 7.60149902 3.59863281 8.42651367 C3.77233398 9.27576416 3.94603516 10.12501465 4.125 11 C4.30385742 11.85762939 4.48271484 12.71525879 4.66699219 13.59887695 C5.84183986 19.50388514 6.3954938 24.96871951 6 31 C3.77338275 27.66007412 3.51283738 25.68785848 3 21.75 C2.4875511 18.07744958 1.92663425 14.75137162 0.875 11.1875 C-0.19728847 7.28130628 -0.14168399 4.03799372 0 0 Z " fill="#FD7674" transform="translate(798,432)"/>
<path d="M0 0 C0.33 0.66 0.66 1.32 1 2 C-3.84897009 9.69288082 -11.33738061 16.78245565 -20 20 C-22.25 19.625 -22.25 19.625 -24 19 C-22.96552734 18.48953125 -22.96552734 18.48953125 -21.91015625 17.96875 C-13.18186077 13.4669131 -5.78689124 8.05132694 0 0 Z " fill="#FC7876" transform="translate(248,200)"/>
<path d="M0 0 C0.66 0 1.32 0 2 0 C2.33 1.32 2.66 2.64 3 4 C3.66 4 4.32 4 5 4 C5.66 4.86625 6.32 5.7325 7 6.625 C9.9906626 10.43786893 13.77919736 12.41731594 17.98828125 14.703125 C18.65214844 15.13109375 19.31601563 15.5590625 20 16 C20 16.66 20 17.32 20 18 C13.00821071 17.12602634 7.7570584 12.16142696 3.2421875 6.984375 C0 2.575 0 2.575 0 0 Z " fill="#FB7875" transform="translate(174,200)"/>
<path d="M0 0 C5.08093301 0.92281903 8.96443364 1.63702804 13 5 C15.29910519 6.10437367 17.63292515 7.04406592 20 8 C20 8.33 20 8.66 20 9 C14.78254934 8.47493172 10.77348889 7.2201441 6.0625 4.9375 C4.91910156 4.38964844 3.77570313 3.84179688 2.59765625 3.27734375 C1.74042969 2.85582031 0.88320313 2.43429687 0 2 C0 1.34 0 0.68 0 0 Z " fill="#FE7774" transform="translate(383,770)"/>
<path d="M0 0 C3 3 3 3 3.4375 5.8125 C2.89460281 9.76789385 1.45666187 11.89304528 -1 15 C-3.70879335 16.35439668 -6.00933268 16.06501451 -9 16 C-6 14 -6 14 -4 14 C-3.67 13.34 -3.34 12.68 -3 12 C-2.34 12.33 -1.68 12.66 -1 13 C-0.67 8.71 -0.34 4.42 0 0 Z " fill="#F17A78" transform="translate(793,785)"/>
<path d="M0 0 C4.03520597 1.58962659 8.01811282 3.28232318 12 5 C12 5.66 12 6.32 12 7 C13.4540625 7.433125 13.4540625 7.433125 14.9375 7.875 C18 9 18 9 19 11 C14.56945897 10.38372174 11.17641757 8.73034155 7.25 6.625 C6.10015625 6.01914062 4.9503125 5.41328125 3.765625 4.7890625 C1 3 1 3 0 0 Z " fill="#FE7774" transform="translate(363,759)"/>
<path d="M0 0 C0.33 0.66 0.66 1.32 1 2 C-2.69105689 7.57038622 -5.78720088 11.33737181 -12 14 C-15.4375 14.25 -15.4375 14.25 -18 14 C-15 12 -15 12 -11 12 C-11 11.34 -11 10.68 -11 10 C-10.29875 9.608125 -9.5975 9.21625 -8.875 8.8125 C-5.13697798 6.4559209 -2.73329905 3.42836479 0 0 Z " fill="#FB7876" transform="translate(187,708)"/>
<path d="M0 0 C4.62653621 1.53346586 8.02074101 4.04099075 11.8125 7 C12.7087207 7.67675781 12.7087207 7.67675781 13.62304688 8.3671875 C15.12347581 9.52637603 16.56724504 10.75813919 18 12 C18 12.66 18 13.32 18 14 C15.50638429 12.79618552 13.31856917 11.54571278 11 10 C11 9.34 11 8.68 11 8 C10.46375 7.9175 9.9275 7.835 9.375 7.75 C6.11220279 6.71964299 3.719328 5.05460338 1 3 C0.67 2.01 0.34 1.02 0 0 Z " fill="#FD7774" transform="translate(686,271)"/>
<path d="M0 0 C3.00544719 -0.33393858 5.10347617 -0.54013047 8 0 C10.49846168 2.25667506 11.69495415 4.64449567 12 8 C11.0625 10.75 11.0625 10.75 10 13 C9.67 13 9.34 13 9 13 C8.67 9.7 8.34 6.4 8 3 C4.7 3 1.4 3 -2 3 C-1.34 2.01 -0.68 1.02 0 0 Z " fill="#F57979" transform="translate(614,835)"/>
<path d="M0 0 C0.33 0 0.66 0 1 0 C1.19548629 6.15781799 1.12086994 12.1348782 -1 18 C-1.66 18.33 -2.32 18.66 -3 19 C-2.88573491 16.58239124 -2.75900339 14.16652782 -2.625 11.75 C-2.5940625 11.06808594 -2.563125 10.38617187 -2.53125 9.68359375 C-2.31740626 6.01260962 -1.98922945 3.13748384 0 0 Z " fill="#FD7674" transform="translate(802,556)"/>
<path d="M0 0 C0.33 0 0.66 0 1 0 C1.99 5.61 2.98 11.22 4 17 C-0.92592593 12.07407407 -0.92592593 12.07407407 -1.125 6.5 C-1 3 -1 3 0 0 Z " fill="#F67876" transform="translate(355,851)"/>
<path d="M0 0 C-2.15264475 2.15264475 -3.33943146 2.59802993 -6.1875 3.5 C-6.98414063 3.75394531 -7.78078125 4.00789062 -8.6015625 4.26953125 C-11.72430214 5.22059365 -14.85374523 6.12975932 -18 7 C-15.78492877 3.49642328 -14.10528452 2.33883163 -10.125 1.25 C-8.86042969 0.88648438 -8.86042969 0.88648438 -7.5703125 0.515625 C-4.97520754 -0.00497356 -2.63909741 -0.09459131 0 0 Z " fill="#FD7874" transform="translate(427,229)"/>
<path d="M0 0 C0 2 0 2 -1.609375 3.62109375 C-2.66898437 4.52021484 -2.66898437 4.52021484 -3.75 5.4375 C-4.79414063 6.33275391 -4.79414063 6.33275391 -5.859375 7.24609375 C-7.86673589 8.89081098 -9.91070312 10.46126108 -12 12 C-11.48256463 7.96945077 -9.56870538 6.34736145 -6.5625 3.75 C-5.75941406 3.04359375 -4.95632813 2.3371875 -4.12890625 1.609375 C-2 0 -2 0 0 0 Z " fill="#FC7773" transform="translate(313,292)"/>
<path d="M0 0 C0.33 0.66 0.66 1.32 1 2 C0.07421875 3.98828125 0.07421875 3.98828125 -1.3125 6.3125 C-3.15200563 9.48053748 -4.770616 12.53537237 -6 16 C-7.0255368 13.32738894 -7.08282493 12.2243612 -6.07421875 9.4921875 C-5.61660156 8.62851563 -5.15898437 7.76484375 -4.6875 6.875 C-4.23761719 6.00617188 -3.78773438 5.13734375 -3.32421875 4.2421875 C-2 2 -2 2 0 0 Z " fill="#FA7976" transform="translate(177,153)"/>
<path d="M0 0 C1.98073365 0.280828 3.95958448 0.57496614 5.9375 0.875 C7.59072266 1.11863281 7.59072266 1.11863281 9.27734375 1.3671875 C10.17582031 1.57601562 11.07429688 1.78484375 12 2 C12.33 2.66 12.66 3.32 13 4 C8.17639811 4.19294408 4.50353262 3.75747614 0 2 C0 1.34 0 0.68 0 0 Z " fill="#FE7572" transform="translate(439,790)"/>
<path d="M0 0 C0.99 0.33 1.98 0.66 3 1 C1.42466914 1.86883706 -0.16064509 2.71959068 -1.75 3.5625 C-2.63171875 4.03816406 -3.5134375 4.51382813 -4.421875 5.00390625 C-7.20701188 6.07998186 -8.26980214 6.06528748 -11 5 C-10.37351562 4.72285156 -9.74703125 4.44570313 -9.1015625 4.16015625 C-8.28429687 3.79792969 -7.46703125 3.43570313 -6.625 3.0625 C-5.81289063 2.70285156 -5.00078125 2.34320312 -4.1640625 1.97265625 C-2.76316215 1.3430097 -1.37374716 0.68687358 0 0 Z " fill="#FD7673" transform="translate(628,776)"/>
<path d="M0 0 C-0.33 0.66 -0.66 1.32 -1 2 C-3.72265625 2.6328125 -3.72265625 2.6328125 -7.0625 3.125 C-8.16722656 3.29257813 -9.27195312 3.46015625 -10.41015625 3.6328125 C-11.69212891 3.81457031 -11.69212891 3.81457031 -13 4 C-12.67 3.01 -12.34 2.02 -12 1 C-7.9472484 0.01751476 -4.16138263 -0.08159574 0 0 Z " fill="#FE7774" transform="translate(452,223)"/>
<path d="M0 0 C1.79379098 0.44994757 3.58498928 0.91024143 5.375 1.375 C6.37273437 1.63023437 7.37046875 1.88546875 8.3984375 2.1484375 C11 3 11 3 13 5 C11.58249437 4.88490339 10.16598831 4.75746342 8.75 4.625 C7.96109375 4.55539062 7.1721875 4.48578125 6.359375 4.4140625 C3.914123 3.98492887 2.15163097 3.21399362 0 2 C0 1.34 0 0.68 0 0 Z " fill="#FE7674" transform="translate(425,786)"/>
<path d="M0 0 C0.66 0.33 1.32 0.66 2 1 C-1.1205874 4.29890668 -4.02751851 6.80468128 -8 9 C-8.99 9.66 -9.98 10.32 -11 11 C-9.52202738 7.32943063 -7.52384523 5.58914217 -4.375 3.25 C-3.55773437 2.63640625 -2.74046875 2.0228125 -1.8984375 1.390625 C-0.95871094 0.70226562 -0.95871094 0.70226562 0 0 Z " fill="#F87976" transform="translate(189,142)"/>
<path d="M0 0 C0.66 0.33 1.32 0.66 2 1 C2.33292585 5.24480464 2.43885872 7.35542625 0 10.9375 C-0.66 11.618125 -1.32 12.29875 -2 13 C-2 11.35 -2 9.7 -2 8 C-1.34 8 -0.68 8 0 8 C0 5.36 0 2.72 0 0 Z " fill="#F67676" transform="translate(855,592)"/>
<path d="M0 0 C-3.20380017 2.13586678 -4.01939967 2.23132175 -7.6875 2.125 C-8.49574219 2.10695313 -9.30398438 2.08890625 -10.13671875 2.0703125 C-11.05904297 2.03550781 -11.05904297 2.03550781 -12 2 C-12.33 1.34 -12.66 0.68 -13 0 C-11.58456585 -0.19658808 -10.16755969 -0.38187546 -8.75 -0.5625 C-7.96109375 -0.66691406 -7.1721875 -0.77132812 -6.359375 -0.87890625 C-3.99467126 -1.00027349 -2.2488963 -0.69633257 0 0 Z " fill="#FE7774" transform="translate(440,615)"/>
<path d="M0 0 C2.25245881 2.68841859 3.88213958 4.64641875 5 8 C5.99 8.33 6.98 8.66 8 9 C7.67 9.99 7.34 10.98 7 12 C0.29612756 4.88610478 0.29612756 4.88610478 0 0 Z " fill="#FD7875" transform="translate(832,270)"/>
<path d="M0 0 C3.46941546 0.45822468 6.67395049 0.89131683 10 2 C10 2.66 10 3.32 10 4 C8.72125 3.896875 7.4425 3.79375 6.125 3.6875 C5.04605469 3.60048828 5.04605469 3.60048828 3.9453125 3.51171875 C2 3 2 3 0 0 Z " fill="#FE7673" transform="translate(414,783)"/>
<path d="M0 0 C0.33 0 0.66 0 1 0 C0.88637738 1.4800841 0.75877092 2.95910074 0.625 4.4375 C0.52058594 5.67306641 0.52058594 5.67306641 0.4140625 6.93359375 C0.27742187 7.61550781 0.14078125 8.29742188 0 9 C-0.99 9.495 -0.99 9.495 -2 10 C-1.85950482 8.52031676 -1.71245174 7.04125484 -1.5625 5.5625 C-1.48128906 4.73878906 -1.40007813 3.91507813 -1.31640625 3.06640625 C-1 1 -1 1 0 0 Z " fill="#FD7572" transform="translate(798,576)"/>
<path d="M0 0 C0.99 0.33 1.98 0.66 3 1 C3.33 3.31 3.66 5.62 4 8 C1 6 1 6 0.3125 2.875 C0.209375 1.92625 0.10625 0.9775 0 0 Z " fill="#FE7673" transform="translate(233,603)"/>
<path d="M0 0 C3.34373475 0.55728913 6.03312999 1.35173889 9 3 C9 3.33 9 3.66 9 4 C5.625 3.6875 5.625 3.6875 2 3 C1.34 2.01 0.68 1.02 0 0 Z " fill="#FD7573" transform="translate(404,779)"/>
<path d="M0 0 C6.15234375 0.5859375 6.15234375 0.5859375 8 1 C8.33 1.66 8.66 2.32 9 3 C2.84765625 2.4140625 2.84765625 2.4140625 1 2 C0.67 1.34 0.34 0.68 0 0 Z " fill="#F27776" transform="translate(784,782)"/>
<path d="M0 0 C-2.35953094 2.35953094 -3.77895617 2.49141413 -7 3 C-7.33 2.01 -7.66 1.02 -8 0 C-4.71303767 -0.79953138 -3.28976808 -1.09658936 0 0 Z " fill="#F97875" transform="translate(852,606)"/>
<path d="M0 0 C2 1 2 1 2 1 Z " fill="#F98A89" transform="translate(464,600)"/>
<path d="M0 0 C2 1 2 1 2 1 Z " fill="#F78686" transform="translate(480,216)"/>
<path d="" fill="#E17678" transform="translate(0,0)"/>
<path d="" fill="#F88381" transform="translate(0,0)"/>
<path d="" fill="#F88286" transform="translate(0,0)"/>
<path d="" fill="#F98387" transform="translate(0,0)"/>
<path d="" fill="#DB7779" transform="translate(0,0)"/>
<path d="" fill="#F78385" transform="translate(0,0)"/>
<path d="" fill="#F98688" transform="translate(0,0)"/>
<path d="" fill="#FA8585" transform="translate(0,0)"/>
<path d="" fill="#F88686" transform="translate(0,0)"/>
<path d="" fill="#F98485" transform="translate(0,0)"/>
<path d="" fill="#F98687" transform="translate(0,0)"/>
<path d="" fill="#F98687" transform="translate(0,0)"/>
<path d="" fill="#F88587" transform="translate(0,0)"/>
<path d="" fill="#F88384" transform="translate(0,0)"/>
<path d="" fill="#F78382" transform="translate(0,0)"/>
<path d="" fill="#F78183" transform="translate(0,0)"/>
<path d="" fill="#F18182" transform="translate(0,0)"/>
<path d="" fill="#E37B7C" transform="translate(0,0)"/>
<path d="" fill="#F98685" transform="translate(0,0)"/>
<path d="" fill="#F98687" transform="translate(0,0)"/>
<path d="" fill="#F98485" transform="translate(0,0)"/>
<path d="" fill="#FB8586" transform="translate(0,0)"/>
<path d="" fill="#F88486" transform="translate(0,0)"/>
<path d="" fill="#FE8689" transform="translate(0,0)"/>
<path d="" fill="#F58184" transform="translate(0,0)"/>
<path d="" fill="#FC8586" transform="translate(0,0)"/>
<path d="" fill="#F88284" transform="translate(0,0)"/>
<path d="" fill="#F88483" transform="translate(0,0)"/>
<path d="" fill="#F98485" transform="translate(0,0)"/>
<path d="" fill="#F78485" transform="translate(0,0)"/>
<path d="" fill="#F68183" transform="translate(0,0)"/>
<path d="" fill="#F78486" transform="translate(0,0)"/>
<path d="" fill="#F78384" transform="translate(0,0)"/>
<path d="" fill="#F68485" transform="translate(0,0)"/>
<path d="" fill="#FA8485" transform="translate(0,0)"/>
<path d="" fill="#F28282" transform="translate(0,0)"/>
<path d="" fill="#FB8485" transform="translate(0,0)"/>
<path d="" fill="#F98687" transform="translate(0,0)"/>
<path d="" fill="#FD8886" transform="translate(0,0)"/>
<path d="" fill="#FA8A89" transform="translate(0,0)"/>
<path d="" fill="#F98488" transform="translate(0,0)"/>
<path d="" fill="#F98387" transform="translate(0,0)"/>
<path d="" fill="#F88685" transform="translate(0,0)"/>
<path d="" fill="#F07E82" transform="translate(0,0)"/>
<path d="" fill="#F48284" transform="translate(0,0)"/>
<path d="" fill="#F48686" transform="translate(0,0)"/>
<path d="" fill="#F38385" transform="translate(0,0)"/>
<path d="" fill="#F38385" transform="translate(0,0)"/>
<path d="" fill="#F98588" transform="translate(0,0)"/>
<path d="" fill="#F48586" transform="translate(0,0)"/>
<path d="" fill="#F38384" transform="translate(0,0)"/>
<path d="" fill="#F98484" transform="translate(0,0)"/>
<path d="" fill="#F48383" transform="translate(0,0)"/>
<path d="" fill="#E27B7C" transform="translate(0,0)"/>
<path d="" fill="#FA8581" transform="translate(0,0)"/>
<path d="" fill="#F68483" transform="translate(0,0)"/>
<path d="" fill="#F88484" transform="translate(0,0)"/>
<path d="" fill="#E57D7D" transform="translate(0,0)"/>
<path d="" fill="#F58585" transform="translate(0,0)"/>
<path d="" fill="#E87D80" transform="translate(0,0)"/>
<path d="" fill="#F28686" transform="translate(0,0)"/>
<path d="" fill="#F58688" transform="translate(0,0)"/>
<path d="" fill="#F88786" transform="translate(0,0)"/>
<path d="" fill="#F38683" transform="translate(0,0)"/>
<path d="" fill="#EA8080" transform="translate(0,0)"/>
<path d="" fill="#F08182" transform="translate(0,0)"/>
<path d="" fill="#E77B79" transform="translate(0,0)"/>
<path d="" fill="#EF8080" transform="translate(0,0)"/>
<path d="" fill="#EB7F80" transform="translate(0,0)"/>
<path d="" fill="#E97B7A" transform="translate(0,0)"/>
</svg>
