<?xml version="1.0" encoding="UTF-8"?>
<svg version="1.1" xmlns="http://www.w3.org/2000/svg" width="1024" height="1024">
<path d="M0 0 C1.68426321 -0.0011559 3.36852617 -0.00274655 5.05278862 -0.00472724 C9.62757934 -0.00885844 14.20234891 -0.00685806 18.77713966 -0.00374103 C23.73530334 -0.0014606 28.69346361 -0.00498024 33.65162659 -0.00772095 C43.35886881 -0.01215482 53.06610327 -0.01121123 62.77334578 -0.00830831 C70.69993009 -0.00603788 78.62651224 -0.00574884 86.55309677 -0.00683212 C87.68719554 -0.00698536 88.82129431 -0.00713859 89.98975971 -0.00729647 C92.29530844 -0.00761626 94.60085718 -0.00794048 96.90640591 -0.00826906 C118.51907524 -0.01111871 140.13174032 -0.00784854 161.74440895 -0.00246869 C180.12443845 0.00196622 198.5044616 0.00125006 216.88449097 -0.00338745 C238.34297345 -0.00879936 259.80145218 -0.01081002 281.25993526 -0.00777519 C283.57289624 -0.00745675 285.88585722 -0.00714237 288.19881821 -0.00683212 C289.33601114 -0.00667785 290.47320406 -0.00652357 291.64485738 -0.00636462 C299.4965372 -0.00551658 307.34821452 -0.00695237 315.19989395 -0.00931168 C342.37841172 -0.01653817 369.55655417 0.00880991 396.734882 0.11628759 C399.4874637 0.12697774 402.24004753 0.13679101 404.99263287 0.14649677 C415.3160447 0.1844554 425.63886868 0.24660853 435.96189094 0.3444674 C439.03595363 0.37309221 442.10987075 0.39327567 445.18404222 0.40529037 C474.48235245 0.53067232 474.48235245 0.53067232 486.48898315 5.12698364 C487.58288298 5.52515352 488.6767828 5.9233234 489.8038311 6.33355904 C510.86078338 14.26752676 528.32532496 30.77920998 537.86398315 51.04885864 C544.29568046 66.43899148 544.93221469 82.12869652 544.86993408 98.55877686 C544.87339817 100.57153875 544.87816775 102.58429875 544.88411582 104.59705484 C544.89655201 110.08230566 544.8904893 115.56739837 544.88115716 121.0526495 C544.87433664 126.98590055 544.88486266 132.91912545 544.89309692 138.85237122 C544.90563652 149.78771357 544.90459177 160.72300211 544.89636252 171.65834727 C544.88879723 181.76172227 544.88685441 191.86507901 544.89043045 201.96845627 C544.89077418 202.97616442 544.89077418 202.97616442 544.89112486 204.00423032 C544.89205897 206.73171271 544.89301418 209.45919508 544.89400415 212.18667745 C544.90316756 237.73774261 544.89488199 263.28877603 544.87871346 288.8398363 C544.86447489 311.51336856 544.86575483 334.18685026 544.88009644 356.86038208 C544.89617799 382.36959685 544.90252078 407.87878362 544.89325964 433.38800275 C544.89229757 436.10971601 544.89135905 438.83142928 544.89043045 441.55314255 C544.8900746 442.5582812 544.8900746 442.5582812 544.88971157 443.58372568 C544.88630675 453.6792341 544.89027568 463.77472221 544.89786911 473.87022781 C544.90629603 485.35379993 544.90397873 496.83731056 544.88802688 508.32087566 C544.88016074 514.17590691 544.87702436 520.03083575 544.88697433 525.88586617 C544.89595583 531.2522707 544.89093165 536.6184785 544.87504168 541.98486535 C544.87170851 543.91933342 544.87335469 545.85381833 544.88066904 547.78827544 C544.97696593 575.38729458 537.55902132 598.54637508 518.11398315 618.81448364 C501.27212884 635.11305233 479.03436252 643.31163577 455.77184296 643.25841141 C454.503972 643.26149036 454.503972 643.26149036 453.21048748 643.26463151 C450.38317923 643.27027799 447.55592005 643.26884717 444.72860718 643.26742554 C442.67895467 643.27001052 440.62930267 643.27302406 438.57965136 643.27642894 C432.9506297 643.28448653 427.3216208 643.28628782 421.69259405 643.28702641 C415.62011213 643.28887913 409.5476368 643.29642758 403.47515869 643.30316162 C389.50594802 643.31744447 375.53674047 643.32327041 361.56752434 643.32785357 C354.65998388 643.33019172 347.75244425 643.33379462 340.84490443 643.33754894 C317.18577579 643.35038276 293.52664761 643.36110193 269.86751556 643.36455154 C268.38310704 643.36477317 266.89869851 643.36499496 265.41428998 643.3652169 C263.92635872 643.36543753 262.43842746 643.36565802 260.9504962 643.36587834 C257.96560383 643.36632089 254.98071146 643.36676801 251.99581909 643.36721802 C250.88570445 643.3673821 250.88570445 643.3673821 249.75316326 643.36754951 C225.76454909 643.37117888 201.77596516 643.38709529 177.78736257 643.41040838 C152.4073894 643.43502843 127.02743351 643.4487254 101.64744806 643.44991946 C98.85901546 643.45009091 96.07058287 643.45030633 93.28215027 643.45055389 C92.25231302 643.45063755 92.25231302 643.45063755 91.20167097 643.45072289 C80.1737164 643.45187145 69.14579297 643.46287686 58.1178489 643.47744095 C47.02400633 643.49183823 35.93019514 643.49477313 24.83634359 643.48700097 C18.83137661 643.48310024 12.82651398 643.48399598 6.82155991 643.49805832 C1.31658965 643.51083156 -4.18819821 643.50956964 -9.69316834 643.49746761 C-11.67705177 643.49551654 -13.66094827 643.49856151 -15.64481336 643.50731197 C-42.76623381 643.61929659 -67.38772939 637.5647082 -87.51101685 618.12698364 C-87.51101685 617.46698364 -87.51101685 616.80698364 -87.51101685 616.12698364 C-88.17101685 616.12698364 -88.83101685 616.12698364 -89.51101685 616.12698364 C-94.88114979 610.24434838 -99.14937237 603.48115334 -102.82351685 596.43948364 C-103.13627563 595.86649536 -103.44903442 595.29350708 -103.77127075 594.70315552 C-110.719265 580.75528867 -111.09380646 565.42067755 -111.01895142 550.20166016 C-111.02356977 548.13527397 -111.02992892 546.06889108 -111.03786039 544.00251496 C-111.05444808 538.36900529 -111.04635568 532.73576915 -111.03391552 527.10225892 C-111.02482397 521.00948948 -111.03885496 514.9167654 -111.04983521 508.82400513 C-111.06655708 497.59393717 -111.06516045 486.36395603 -111.05418933 475.13388994 C-111.04410344 464.75829903 -111.04151131 454.38273974 -111.04627991 444.00714493 C-111.04658545 443.31731698 -111.04689099 442.62748904 -111.04720579 441.91675722 C-111.04845126 439.11612451 -111.04972487 436.31549182 -111.05104484 433.51485914 C-111.06326354 407.27689962 -111.05221401 381.03899506 -111.03065725 354.80104403 C-111.01167251 331.51659473 -111.01337888 308.23223296 -111.03250122 284.94778442 C-111.05394209 258.75297362 -111.06240101 232.55821131 -111.05005217 206.36339295 C-111.0487694 203.56865892 -111.04751803 200.77392488 -111.04627991 197.97919083 C-111.0459636 197.29111744 -111.04564729 196.60304405 -111.04532139 195.89411995 C-111.04078114 185.52649544 -111.0460745 175.1589061 -111.05619812 164.79128647 C-111.06765639 152.9984558 -111.06434709 141.20570863 -111.04307514 129.41288434 C-111.03258512 123.39985714 -111.02840817 117.38700725 -111.04167175 111.37398148 C-111.05364342 105.86319165 -111.04695444 100.35274251 -111.02576154 94.84198333 C-111.02131575 92.85502715 -111.02351588 90.86804182 -111.0332647 88.88110457 C-111.09948156 74.25652238 -109.74193926 60.98647073 -102.76101685 47.81448364 C-102.42030151 47.15279175 -102.07958618 46.49109985 -101.72854614 45.80935669 C-97.54247246 37.93900088 -92.0441276 31.1820619 -85.51101685 25.12698364 C-84.91289185 24.53530396 -84.31476685 23.94362427 -83.69851685 23.33401489 C-77.30691976 17.25964781 -70.25755757 13.20028205 -62.51101685 9.12698364 C-61.7633606 8.71448364 -61.01570435 8.30198364 -60.24539185 7.87698364 C-55.42250887 5.44655443 -50.30148681 4.1842384 -45.07351685 2.93948364 C-44.40094849 2.77222778 -43.72838013 2.60497192 -43.03543091 2.43264771 C-37.81716394 1.28068618 -32.59553321 0.86958726 -27.26927376 0.58291817 C-26.47751134 0.54002747 -25.68574892 0.49713678 -24.86999369 0.45294637 C-16.57833661 0.03489152 -8.30030168 -0.01265585 0 0 Z M29.48898315 54.12698364 C28.25003822 57.26564413 28.30910475 58.64356044 29.48898315 61.81448364 C32.13975566 64.87943935 34.61108355 65.50297089 38.48898315 66.12698364 C43.2728317 66.41608755 48.05288467 66.39722638 52.8434906 66.38095093 C54.31781113 66.38325664 55.7921305 66.38643391 57.26644748 66.39040542 C61.30944158 66.39874671 65.35234114 66.39463117 69.39533556 66.38843298 C73.75870105 66.38390683 78.12205033 66.39089304 82.4854126 66.39639282 C91.02967734 66.40528648 99.57390695 66.40336499 108.11817307 66.39756754 C115.06160803 66.39305125 122.00503315 66.392438 128.94846916 66.39461517 C130.43065396 66.39507487 130.43065396 66.39507487 131.94278188 66.39554386 C133.95010575 66.39618331 135.95742963 66.39683173 137.9647535 66.39748904 C156.78746377 66.40319218 175.61015455 66.39663454 194.43286162 66.38588831 C210.58658832 66.37695143 226.74028627 66.378506 242.89401245 66.38772583 C261.65080629 66.39842635 280.40758307 66.40264432 299.16437954 66.3965013 C301.16402399 66.3958642 303.16366845 66.39523546 305.16331291 66.39461517 C306.14719109 66.39430662 307.13106927 66.39399807 308.14476194 66.39368017 C315.08105052 66.39195268 322.01732828 66.39486947 328.95361519 66.39957428 C337.40481818 66.40518062 345.85598401 66.40367179 354.30718274 66.39301279 C358.61978796 66.38775298 362.93233121 66.38570464 367.24493599 66.3923111 C371.19196615 66.39826615 375.13887682 66.39500278 379.08589613 66.38435599 C380.51445056 66.3821201 381.94301506 66.3832625 383.37156302 66.38810757 C385.31265107 66.39418648 387.25376736 66.3867571 389.19484806 66.37866592 C390.27325649 66.37834122 391.35166493 66.37801651 392.4627524 66.37768197 C395.77529231 66.10326528 398.4208942 65.39664274 401.48898315 64.12698364 C403.73846384 61.4421196 404.51011463 60.01450569 404.42648315 56.50198364 C403.26942784 53.57077685 402.15006906 52.76744601 399.48898315 51.12698364 C397.28259174 50.69823833 397.28259174 50.69823833 394.91989136 50.78640747 C393.57378532 50.78674736 393.57378532 50.78674736 392.20048523 50.78709412 C391.23994736 50.80257797 390.27940948 50.81806183 389.2897644 50.83401489 C388.29897385 50.83825974 387.30818329 50.84250458 386.28736877 50.84687805 C383.12512934 50.86365679 379.96352953 50.9012999 376.80148315 50.93948364 C374.66021635 50.95453222 372.51893951 50.96822032 370.37765503 50.98049927 C365.6818181 51.01002468 360.98631024 51.05267968 356.29069519 51.10679626 C281.04575505 51.94988218 205.73956425 51.12698364 130.48898315 51.12698364 C130.48898315 51.78698364 130.48898315 52.44698364 130.48898315 53.12698364 C129.49898315 53.12698364 128.50898315 53.12698364 127.48898315 53.12698364 C127.48898315 52.46698364 127.48898315 51.80698364 127.48898315 51.12698364 C126.81468765 51.12698364 126.14039215 51.12698364 125.44566345 51.12698364 C72.48898315 51.12698364 72.48898315 51.12698364 68.8588562 51.07937622 C64.56286338 51.02519913 60.26690666 50.99066575 55.97067261 50.96218872 C54.11319884 50.94709522 52.25576075 50.92661829 50.39840698 50.90066528 C47.72408283 50.8642524 45.05022881 50.84725271 42.3757019 50.83401489 C41.54640671 50.81853104 40.71711151 50.80304718 39.86268616 50.78709412 C34.0697651 50.76783084 34.0697651 50.76783084 29.48898315 54.12698364 Z M163.48898315 175.12698364 C161.71441325 178.0449603 161.23680626 180.22494346 161.22396851 183.61871338 C161.21569534 184.51322205 161.20742218 185.40773071 161.19889832 186.3293457 C161.19988022 187.30300079 161.20086212 188.27665588 161.20187378 189.27981567 C161.19504074 190.31106567 161.1882077 191.34231567 161.1811676 192.40481567 C161.16758115 194.64303533 161.15852688 196.88128602 161.15345764 199.11954117 C161.14518017 202.65744146 161.12468742 206.19508221 161.10092163 209.73291016 C161.04446304 218.5169632 161.00924273 227.30107905 160.97329712 236.0852356 C160.94211422 243.51079661 160.90297702 250.93623121 160.8530426 258.36169052 C160.83290483 261.85501507 160.82464157 265.34824314 160.81674194 268.84161377 C160.80377622 270.97205971 160.7902569 273.10250237 160.77609253 275.23294067 C160.77707443 276.21064423 160.77805634 277.18834778 160.77906799 278.19567871 C160.77079483 279.08454773 160.76252167 279.97341675 160.7539978 280.88922119 C160.75106468 281.66386278 160.74813156 282.43850437 160.74510956 283.23661995 C160.48898315 285.12698364 160.48898315 285.12698364 158.48898315 287.12698364 C153.93791037 288.00586184 149.55584738 288.24027555 144.9303894 288.19290161 C143.67218384 288.18314301 142.41397827 288.1733844 141.11764526 288.16333008 C140.4552182 288.15596706 139.79279114 288.14860405 139.11029053 288.14101791 C137.01589689 288.11879352 134.92159634 288.10484633 132.82711792 288.09332275 C126.87671304 288.05991595 120.92646302 288.01813195 114.97628784 287.95559692 C111.32426343 287.91780337 107.67239371 287.89488473 104.02020264 287.88129044 C102.63598296 287.87327801 101.25178311 287.85972891 99.86767578 287.84035873 C88.40149644 287.53962205 88.40149644 287.53962205 78.55148315 292.75198364 C76.83354716 296.59207587 76.66672202 300.0088824 77.48898315 304.12698364 C80.18754585 309.48456965 84.59224956 313.26656193 89.1257019 317.06057739 C92.18326044 319.73404593 95.05407238 322.56963067 97.92648315 325.43948364 C98.4590271 325.967677 98.99157104 326.49587036 99.54025269 327.04006958 C103.36442635 330.87787004 103.36442635 330.87787004 104.48898315 333.12698364 C105.14898315 333.12698364 105.80898315 333.12698364 106.48898315 333.12698364 C106.81898315 334.11698364 107.14898315 335.10698364 107.48898315 336.12698364 C109.18304006 337.80582042 109.18304006 337.80582042 111.23898315 339.43948364 C114.74918663 342.40725781 117.55069919 345.58597476 120.48898315 349.12698364 C122.22489498 350.66956886 124.00830133 352.1429639 125.7975769 353.62307739 C128.32357552 355.86905768 130.33359063 358.52945932 132.48898315 361.12698364 C134.46855258 362.81786586 136.46843512 364.48528836 138.48898315 366.12698364 C141.00874092 368.52675294 143.29484475 370.87648248 145.42648315 373.62698364 C147.83812831 376.55018989 150.55627235 378.73293401 153.48898315 381.12698364 C156.20530665 383.71983789 158.4046817 386.00053145 160.48898315 389.12698364 C161.14898315 389.12698364 161.80898315 389.12698364 162.48898315 389.12698364 C162.69523315 389.68385864 162.90148315 390.24073364 163.11398315 390.81448364 C164.64957189 393.39706471 166.51891543 394.8707345 168.85617065 396.71682739 C170.56733221 398.19464874 171.93264995 399.75387997 173.36398315 401.50198364 C176.11704272 404.82588758 179.15848821 407.58403287 182.4616394 410.35354614 C184.92087791 412.50478753 187.19451323 414.80108263 189.48898315 417.12698364 C190.31398315 417.95198364 191.13898315 418.77698364 191.98898315 419.62698364 C194.48898315 422.12698364 196.98898315 424.62698364 199.48898315 427.12698364 C200.77869019 428.40315552 200.77869019 428.40315552 202.0944519 429.70510864 C203.51025184 431.13707595 204.90038424 432.59662803 206.2272644 434.11135864 C209.05580277 437.28381359 211.26417828 439.51561448 215.55148315 440.25198364 C222.41232637 440.0341791 226.47595161 436.58495496 231.13235474 431.86456299 C231.93422057 431.06971711 231.93422057 431.06971711 232.75228572 430.25881374 C234.53270224 428.49031511 236.30225921 426.71134535 238.07199097 424.93215942 C239.34978247 423.65843498 240.62821089 422.3853492 241.90722656 421.112854 C245.37261543 417.66112701 248.82846513 414.19999529 252.28226566 410.73667765 C255.89898701 407.11235558 259.52302837 403.49536496 263.14590454 399.87719727 C269.22726123 393.80129621 275.30227002 387.71910197 281.37374878 381.6333313 C288.39366925 374.59707741 295.42434184 367.57170613 302.46068311 360.55187619 C308.50283419 354.52333663 314.53912227 348.48897338 320.570544 342.44969928 C324.17241483 338.84315108 327.77628269 335.23866125 331.38544464 331.63940811 C334.77721948 328.25629597 338.16157752 324.86593544 341.54034042 321.46982956 C342.78178281 320.22441897 344.02578792 318.98155694 345.27251816 317.74143982 C346.97322594 316.04892388 348.66443254 314.34744723 350.35354614 312.64337158 C350.84945102 312.15415887 351.3453559 311.66494616 351.85628819 311.16090882 C354.6199674 308.34951428 356.41136116 305.93830964 357.48898315 302.12698364 C357.35131277 298.27221281 356.80507004 295.71964656 354.98898315 292.31448364 C348.5991146 286.72334865 338.6385904 287.87867812 330.65250397 287.97665405 C328.52485671 288.00249684 326.39746266 288.01528969 324.26968384 288.02493286 C319.75933522 288.04761925 315.24919913 288.08614656 310.73898315 288.12698364 C305.49425489 288.17430994 300.24964506 288.21500762 295.00475311 288.23886108 C292.9146356 288.25176735 290.82488985 288.27676879 288.7348938 288.30227661 C287.4629718 288.30888306 286.1910498 288.3154895 284.88058472 288.32229614 C283.20588104 288.33800659 283.20588104 288.33800659 281.49734497 288.35403442 C278.4345822 288.12287783 276.2535509 287.42704944 273.48898315 286.12698364 C273.3568535 275.96314369 273.22636393 265.79928403 273.09783173 255.63539791 C273.03806712 250.9132632 272.97778782 246.19113635 272.91622925 241.46902466 C272.85673788 236.90498109 272.79888832 232.34091888 272.74185181 227.77684402 C272.70787358 225.10287866 272.67192256 222.42894414 272.63595581 219.75500488 C272.54095481 212.37457651 272.46467569 205.00061898 272.5632019 197.61965942 C272.58211487 196.01581139 272.58211487 196.01581139 272.60140991 194.37956238 C272.62925013 192.51425819 272.66970235 190.64906652 272.72714233 188.78443909 C272.80928619 183.45185533 272.19317107 179.7849693 269.48898315 175.12698364 C265.01275401 171.4474633 260.70861611 171.70034826 255.1882019 171.73880005 C254.25916046 171.73354309 253.33011902 171.72828613 252.3729248 171.72286987 C249.30727236 171.70968488 246.24214073 171.71840278 243.17648315 171.72854614 C241.04326274 171.72652498 238.910043 171.72361319 236.77682495 171.71984863 C232.30808935 171.71542731 227.83953376 171.7218503 223.37081909 171.73587036 C217.64410574 171.75296199 211.91781421 171.74311981 206.19111633 171.72515297 C201.78676172 171.71431005 197.38250704 171.71776384 192.97814941 171.72553635 C190.86663768 171.72753694 188.75511685 171.72508402 186.64361572 171.71809769 C183.69208763 171.71047501 180.74124172 171.72209919 177.7897644 171.73880005 C176.91792511 171.73272736 176.04608582 171.72665466 175.14782715 171.72039795 C170.47641173 171.76934197 167.21124733 171.98383592 163.48898315 175.12698364 Z M45.48898315 477.12698364 C41.59007428 483.39247913 42.04133479 489.92672323 42.11398315 497.12698364 C42.10238159 498.27682739 42.09078003 499.42667114 42.0788269 500.61135864 C42.10025068 506.80997065 42.16919748 511.79213156 45.48898315 517.12698364 C49.7157393 520.45795313 53.84603976 520.66450194 59.0377655 520.80639648 C59.90769742 520.83950043 60.77762934 520.87260437 61.67392284 520.90671146 C74.01336891 521.32275045 86.36380319 521.26655629 98.70846558 521.25637817 C101.49840372 521.257187 104.28834024 521.2594827 107.07827759 521.26168823 C113.82303694 521.26609915 120.56778508 521.26519027 127.31254485 521.26227559 C132.80479779 521.26000206 138.29704763 521.25971742 143.78930092 521.26079941 C144.57590172 521.26095264 145.36250253 521.26110587 146.17293972 521.26126375 C147.77178476 521.26158353 149.37062979 521.26190775 150.96947483 521.26223634 C165.90995024 521.26507768 180.85041949 521.2618258 195.79089389 521.25643598 C208.55459926 521.25197355 221.31829553 521.25274187 234.08200073 521.25735474 C248.96724179 521.26273196 263.85247746 521.26479855 278.73771936 521.26174247 C280.33167509 521.26142399 281.92563083 521.26110961 283.51958656 521.26079941 C284.30346865 521.26064513 285.08735074 521.26049086 285.89498683 521.26033191 C291.3652616 521.25947583 296.83553289 521.26090992 302.30580711 521.26327896 C308.99468999 521.26611253 315.68356117 521.26526516 322.37244274 521.25999822 C325.77206217 521.25740775 329.17164653 521.25683279 332.57126808 521.25964737 C340.87810314 521.2658837 349.1826909 521.21946032 357.48898315 521.12698364 C358.66624663 521.1191654 359.8435101 521.11134715 361.05644822 521.10329199 C364.5113755 521.07251567 367.96393458 521.00710897 371.4181366 520.93139648 C372.96514009 520.92356634 372.96514009 520.92356634 374.54339617 520.91557801 C379.12776782 520.77971911 382.46433029 520.6501311 386.11841106 517.70170784 C390.94445498 512.4600482 389.78619311 505.92341172 389.83908081 499.15164185 C389.85562677 497.59875487 389.88289957 496.04594364 389.92111206 494.49343872 C389.9760273 492.24979323 389.99777453 490.00793039 390.01242065 487.76370239 C390.04642471 486.72907112 390.04642471 486.72907112 390.08111572 485.67353821 C390.06434116 481.82513824 389.58630531 480.24794234 387.14376831 477.21218872 C383.63493072 474.45616684 381.18613779 474.00195054 376.85909081 474.00393581 C375.90276737 474.00194477 374.94644393 473.99995372 373.96114099 473.99790233 C372.90833275 474.00081518 371.85552451 474.00372802 370.77081299 474.00672913 C369.09581173 474.00544749 369.09581173 474.00544749 367.38697207 474.00413996 C363.62587507 474.00248607 359.86482217 474.0080051 356.10372925 474.01345825 C353.41528726 474.01374017 350.72684802 474.01362638 348.03840637 474.01301575 C342.24022333 474.0124909 336.44205152 474.01563369 330.64387131 474.02125359 C322.25954558 474.02937474 313.8752253 474.03198445 305.49089606 474.03324158 C291.88706524 474.03543131 278.28324041 474.04208908 264.67941284 474.05154419 C251.46554596 474.06071872 238.2516807 474.06779952 225.03781128 474.072052 C224.22371506 474.07231473 223.40961884 474.07257745 222.57085304 474.07284813 C218.48670463 474.07415319 214.4025562 474.07541691 210.31840777 474.07666004 C176.99900551 474.08685388 143.67961029 474.10400116 110.36021364 474.12583297 C107.64726739 474.12750124 104.93527266 474.10404011 102.22238159 474.07937622 C96.60505467 474.03102555 90.98776055 473.99652608 85.37028122 473.97154713 C81.96816073 473.95590253 78.56626647 473.93468008 75.16427612 473.90066528 C71.24649802 473.86174413 67.32881057 473.84725907 63.41085815 473.83401489 C62.19299622 473.81853104 60.97513428 473.80304718 59.72036743 473.78709412 C58.58278992 473.78686752 57.4452124 473.78664093 56.27316284 473.78640747 C55.27468323 473.77974564 54.27620361 473.7730838 53.24746704 473.76622009 C49.977101 474.19392927 48.1318342 475.17928866 45.48898315 477.12698364 Z " fill="#FA736D" transform="translate(296.5110168457031,185.87301635742188)"/>
<path d="M0 0 C4.29 0 8.58 0 13 0 C13 0.33 13 0.66 13 1 C8.71 1 4.42 1 0 1 C0 0.67 0 0.34 0 0 Z " fill="#FD7A74" transform="translate(592,238)"/>
<path d="M0 0 C2.31 0 4.62 0 7 0 C7 0.33 7 0.66 7 1 C4.69 1 2.38 1 0 1 C0 0.67 0 0.34 0 0 Z " fill="#FC7A73" transform="translate(656,238)"/>
<path d="M0 0 C2.31 0 4.62 0 7 0 C7 0.33 7 0.66 7 1 C4.69 1 2.38 1 0 1 C0 0.67 0 0.34 0 0 Z " fill="#FD7A73" transform="translate(560,238)"/>
<path d="M0 0 C2.31 0 4.62 0 7 0 C7 0.33 7 0.66 7 1 C4.69 1 2.38 1 0 1 C0 0.67 0 0.34 0 0 Z " fill="#FC7A74" transform="translate(480,238)"/>
<path d="M0 0 C1.98 0 3.96 0 6 0 C6 0.33 6 0.66 6 1 C4.02 1 2.04 1 0 1 C0 0.67 0 0.34 0 0 Z " fill="#F27871" transform="translate(464,830)"/>
<path d="M0 0 C1.98 0 3.96 0 6 0 C6 0.33 6 0.66 6 1 C4.02 1 2.04 1 0 1 C0 0.67 0 0.34 0 0 Z " fill="#FC7A74" transform="translate(464,238)"/>
<path d="M0 0 C1.65 0 3.3 0 5 0 C5 0.33 5 0.66 5 1 C3.35 1 1.7 1 0 1 C0 0.67 0 0.34 0 0 Z " fill="#F07871" transform="translate(752,830)"/>
<path d="M0 0 C1.65 0 3.3 0 5 0 C5 0.33 5 0.66 5 1 C3.35 1 1.7 1 0 1 C0 0.67 0 0.34 0 0 Z " fill="#F17871" transform="translate(744,830)"/>
<path d="M0 0 C1.65 0 3.3 0 5 0 C5 0.33 5 0.66 5 1 C3.35 1 1.7 1 0 1 C0 0.67 0 0.34 0 0 Z " fill="#F37771" transform="translate(681,830)"/>
<path d="M0 0 C1.65 0 3.3 0 5 0 C5 0.33 5 0.66 5 1 C3.35 1 1.7 1 0 1 C0 0.67 0 0.34 0 0 Z " fill="#F37770" transform="translate(368,830)"/>
<path d="M0 0 C1.65 0 3.3 0 5 0 C5 0.33 5 0.66 5 1 C3.35 1 1.7 1 0 1 C0 0.67 0 0.34 0 0 Z " fill="#F27771" transform="translate(296,830)"/>
<path d="M0 0 C1.65 0 3.3 0 5 0 C5 0.33 5 0.66 5 1 C3.35 1 1.7 1 0 1 C0 0.67 0 0.34 0 0 Z " fill="#FD7A74" transform="translate(680,238)"/>
<path d="M0 0 C1.65 0 3.3 0 5 0 C5 0.33 5 0.66 5 1 C3.35 1 1.7 1 0 1 C0 0.67 0 0.34 0 0 Z " fill="#FC7A73" transform="translate(672,238)"/>
<path d="M0 0 C1.65 0 3.3 0 5 0 C5 0.33 5 0.66 5 1 C3.35 1 1.7 1 0 1 C0 0.67 0 0.34 0 0 Z " fill="#FC7A74" transform="translate(584,238)"/>
<path d="M0 0 C1.65 0 3.3 0 5 0 C5 0.33 5 0.66 5 1 C3.35 1 1.7 1 0 1 C0 0.67 0 0.34 0 0 Z " fill="#FD7A74" transform="translate(576,238)"/>
<path d="M0 0 C1.65 0 3.3 0 5 0 C5 0.33 5 0.66 5 1 C3.35 1 1.7 1 0 1 C0 0.67 0 0.34 0 0 Z " fill="#FD7B74" transform="translate(432,238)"/>
<path d="M0 0 C1.65 0 3.3 0 5 0 C5 0.33 5 0.66 5 1 C3.35 1 1.7 1 0 1 C0 0.67 0 0.34 0 0 Z " fill="#FC7B74" transform="translate(416,238)"/>
<path d="M0 0 C1.65 0 3.3 0 5 0 C5 0.33 5 0.66 5 1 C3.35 1 1.7 1 0 1 C0 0.67 0 0.34 0 0 Z " fill="#FC7A74" transform="translate(392,238)"/>
<path d="M0 0 C1.65 0 3.3 0 5 0 C5 0.33 5 0.66 5 1 C3.35 1 1.7 1 0 1 C0 0.67 0 0.34 0 0 Z " fill="#FB7A74" transform="translate(360,238)"/>
<path d="M0 0 C1.65 0 3.3 0 5 0 C5 0.33 5 0.66 5 1 C3.35 1 1.7 1 0 1 C0 0.67 0 0.34 0 0 Z " fill="#FC7B74" transform="translate(336,238)"/>
<path d="M0 0 C4 1 4 1 4 1 Z " fill="#F27871" transform="translate(737,830)"/>
<path d="M0 0 C4 1 4 1 4 1 Z " fill="#F47871" transform="translate(521,830)"/>
<path d="M0 0 C4 1 4 1 4 1 Z " fill="#F47671" transform="translate(497,830)"/>
<path d="M0 0 C4 1 4 1 4 1 Z " fill="#F37972" transform="translate(481,830)"/>
<path d="M0 0 C4 1 4 1 4 1 Z " fill="#F47870" transform="translate(433,830)"/>
<path d="M0 0 C4 1 4 1 4 1 Z " fill="#F37871" transform="translate(337,830)"/>
<path d="M0 0 C4 1 4 1 4 1 Z " fill="#F47771" transform="translate(329,830)"/>
<path d="M0 0 C4 1 4 1 4 1 Z " fill="#F37771" transform="translate(289,830)"/>
<path d="M0 0 C4 1 4 1 4 1 Z " fill="#FD7A75" transform="translate(591,661)"/>
<path d="M0 0 C4 1 4 1 4 1 Z " fill="#FC7B75" transform="translate(535,661)"/>
<path d="M0 0 C4 1 4 1 4 1 Z " fill="#FC7B76" transform="translate(503,661)"/>
<path d="M0 0 C4 1 4 1 4 1 Z " fill="#FD7B75" transform="translate(423,661)"/>
<path d="M0 0 C4 1 4 1 4 1 Z " fill="#FC7B74" transform="translate(375,661)"/>
<path d="M0 0 C4 1 4 1 4 1 Z " fill="#FC7B75" transform="translate(367,661)"/>
<path d="M0 0 C4 1 4 1 4 1 Z " fill="#FB7B74" transform="translate(468,359)"/>
<path d="M0 0 C4 1 4 1 4 1 Z " fill="#FC7A73" transform="translate(615,238)"/>
<path d="M0 0 C4 1 4 1 4 1 Z " fill="#FD7B75" transform="translate(496,238)"/>
<path d="M0 0 C4 1 4 1 4 1 Z " fill="#FC7B74" transform="translate(353,238)"/>
<path d="M0 0 C3 1 3 1 3 1 Z " fill="#F27871" transform="translate(730,830)"/>
<path d="M0 0 C3 1 3 1 3 1 Z " fill="#F47871" transform="translate(650,830)"/>
<path d="M0 0 C3 1 3 1 3 1 Z " fill="#F37872" transform="translate(530,830)"/>
<path d="M0 0 C3 1 3 1 3 1 Z " fill="#F47771" transform="translate(490,830)"/>
<path d="M0 0 C3 1 3 1 3 1 Z " fill="#F47972" transform="translate(474,830)"/>
<path d="M0 0 C3 1 3 1 3 1 Z " fill="#F47972" transform="translate(426,830)"/>
<path d="M0 0 C3 1 3 1 3 1 Z " fill="#F37971" transform="translate(401,830)"/>
<path d="M0 0 C3 1 3 1 3 1 Z " fill="#F47871" transform="translate(386,830)"/>
<path d="M0 0 C3 1 3 1 3 1 Z " fill="#F47871" transform="translate(360,830)"/>
<path d="M0 0 C3 1 3 1 3 1 Z " fill="#F57771" transform="translate(352,830)"/>
<path d="M0 0 C3 1 3 1 3 1 Z " fill="#F27772" transform="translate(322,830)"/>
<path d="M0 0 C3 1 3 1 3 1 Z " fill="#F37871" transform="translate(314,830)"/>
<path d="" fill="#FB7B76" transform="translate(0,0)"/>
<path d="M0 0 C3 1 3 1 3 1 Z " fill="#FD7B75" transform="translate(607,661)"/>
<path d="M0 0 C3 1 3 1 3 1 Z " fill="#FC7B77" transform="translate(488,661)"/>
<path d="M0 0 C3 1 3 1 3 1 Z " fill="#FC7A74" transform="translate(471,661)"/>
<path d="M0 0 C3 1 3 1 3 1 Z " fill="#FC7B76" transform="translate(360,661)"/>
<path d="M0 0 C3 1 3 1 3 1 Z " fill="#FA7A72" transform="translate(507,359)"/>
<path d="M0 0 C3 1 3 1 3 1 Z " fill="#F97A73" transform="translate(503,359)"/>
<path d="M0 0 C3 1 3 1 3 1 Z " fill="#FA7A73" transform="translate(485,359)"/>
<path d="M0 0 C3 1 3 1 3 1 Z " fill="#FA7973" transform="translate(477,359)"/>
<path d="M0 0 C3 1 3 1 3 1 Z " fill="#FC7A74" transform="translate(642,238)"/>
<path d="M0 0 C3 1 3 1 3 1 Z " fill="#FC7B73" transform="translate(632,238)"/>
<path d="M0 0 C3 1 3 1 3 1 Z " fill="#FC7A74" transform="translate(626,238)"/>
<path d="M0 0 C3 1 3 1 3 1 Z " fill="#FC7A73" transform="translate(606,238)"/>
<path d="M0 0 C3 1 3 1 3 1 Z " fill="#FD7A74" transform="translate(570,238)"/>
<path d="M0 0 C3 1 3 1 3 1 Z " fill="#FD7B74" transform="translate(554,238)"/>
<path d="M0 0 C3 1 3 1 3 1 Z " fill="#FD7B75" transform="translate(488,238)"/>
<path d="M0 0 C3 1 3 1 3 1 Z " fill="#FD7A74" transform="translate(428,238)"/>
<path d="M0 0 C3 1 3 1 3 1 Z " fill="#FC7A73" transform="translate(406,238)"/>
<path d="M0 0 C3 1 3 1 3 1 Z " fill="#FD7A74" transform="translate(384,238)"/>
<path d="M0 0 C3 1 3 1 3 1 Z " fill="#FC7A73" transform="translate(378,238)"/>
<path d="M0 0 C3 1 3 1 3 1 Z " fill="#FC7A73" transform="translate(346,238)"/>
<path d="M0 0 C2 1 2 1 2 1 Z " fill="#F37770" transform="translate(720,830)"/>
<path d="M0 0 C2 1 2 1 2 1 Z " fill="#F37772" transform="translate(715,830)"/>
<path d="M0 0 C2 1 2 1 2 1 Z " fill="#F37771" transform="translate(707,830)"/>
<path d="M0 0 C2 1 2 1 2 1 Z " fill="#F37872" transform="translate(697,830)"/>
<path d="M0 0 C2 1 2 1 2 1 Z " fill="#F37872" transform="translate(691,830)"/>
<path d="M0 0 C2 1 2 1 2 1 Z " fill="#F57871" transform="translate(675,830)"/>
<path d="M0 0 C2 1 2 1 2 1 Z " fill="#F47670" transform="translate(643,830)"/>
<path d="M0 0 C2 1 2 1 2 1 Z " fill="#F47770" transform="translate(596,830)"/>
<path d="M0 0 C2 1 2 1 2 1 Z " fill="#F57871" transform="translate(593,830)"/>
<path d="M0 0 C2 1 2 1 2 1 Z " fill="#F37870" transform="translate(579,830)"/>
<path d="M0 0 C2 1 2 1 2 1 Z " fill="#F57872" transform="translate(544,830)"/>
<path d="M0 0 C2 1 2 1 2 1 Z " fill="#F57772" transform="translate(459,830)"/>
<path d="M0 0 C2 1 2 1 2 1 Z " fill="#F57771" transform="translate(443,830)"/>
<path d="M0 0 C2 1 2 1 2 1 Z " fill="#F47972" transform="translate(409,830)"/>
<path d="M0 0 C2 1 2 1 2 1 Z " fill="#F37771" transform="translate(395,830)"/>
<path d="M0 0 C2 1 2 1 2 1 Z " fill="#F37770" transform="translate(379,830)"/>
<path d="M0 0 C2 1 2 1 2 1 Z " fill="#F47871" transform="translate(347,830)"/>
<path d="M0 0 C2 1 2 1 2 1 Z " fill="#F27671" transform="translate(307,830)"/>
<path d="M0 0 C2 1 2 1 2 1 Z " fill="#F27971" transform="translate(283,830)"/>
<path d="M0 0 C2 1 2 1 2 1 Z " fill="#FE7A74" transform="translate(673,661)"/>
<path d="M0 0 C2 1 2 1 2 1 Z " fill="#FD7A75" transform="translate(663,661)"/>
<path d="M0 0 C2 1 2 1 2 1 Z " fill="#FC7974" transform="translate(655,661)"/>
<path d="M0 0 C2 1 2 1 2 1 Z " fill="#FC7A75" transform="translate(647,661)"/>
<path d="M0 0 C2 1 2 1 2 1 Z " fill="#FC7A76" transform="translate(639,661)"/>
<path d="M0 0 C2 1 2 1 2 1 Z " fill="#FC7C77" transform="translate(631,661)"/>
<path d="M0 0 C2 1 2 1 2 1 Z " fill="#FD7B75" transform="translate(625,661)"/>
<path d="M0 0 C2 1 2 1 2 1 Z " fill="#FC7A75" transform="translate(615,661)"/>
<path d="M0 0 C2 1 2 1 2 1 Z " fill="#FC7B75" transform="translate(599,661)"/>
<path d="M0 0 C2 1 2 1 2 1 Z " fill="#FD7A75" transform="translate(559,661)"/>
<path d="M0 0 C2 1 2 1 2 1 Z " fill="#FD7A75" transform="translate(519,661)"/>
<path d="M0 0 C2 1 2 1 2 1 Z " fill="#FC7A72" transform="translate(516,661)"/>
<path d="M0 0 C2 1 2 1 2 1 Z " fill="#FD7B75" transform="translate(512,661)"/>
<path d="M0 0 C2 1 2 1 2 1 Z " fill="#FD7A74" transform="translate(508,661)"/>
<path d="M0 0 C2 1 2 1 2 1 Z " fill="#FE7B75" transform="translate(497,661)"/>
<path d="M0 0 C2 1 2 1 2 1 Z " fill="#FD7A74" transform="translate(479,661)"/>
<path d="M0 0 C2 1 2 1 2 1 Z " fill="#FD7B75" transform="translate(431,661)"/>
<path d="M0 0 C2 1 2 1 2 1 Z " fill="#FD7A75" transform="translate(415,661)"/>
<path d="M0 0 C2 1 2 1 2 1 Z " fill="#FC7A74" transform="translate(412,661)"/>
<path d="M0 0 C2 1 2 1 2 1 Z " fill="#FC7A75" transform="translate(353,661)"/>
<path d="" fill="#FD7C75" transform="translate(0,0)"/>
<path d="M0 0 C2 1 2 1 2 1 Z " fill="#FA7973" transform="translate(556,359)"/>
<path d="" fill="#FC7B74" transform="translate(0,0)"/>
<path d="" fill="#FB7A74" transform="translate(0,0)"/>
<path d="M0 0 C2 1 2 1 2 1 Z " fill="#FD7A74" transform="translate(667,238)"/>
<path d="M0 0 C2 1 2 1 2 1 Z " fill="#FC7B73" transform="translate(610,238)"/>
<path d="M0 0 C2 1 2 1 2 1 Z " fill="#FD7A73" transform="translate(526,238)"/>
<path d="M0 0 C2 1 2 1 2 1 Z " fill="#FD7B73" transform="translate(515,238)"/>
<path d="M0 0 C2 1 2 1 2 1 Z " fill="#FD7B74" transform="translate(474,238)"/>
<path d="M0 0 C2 1 2 1 2 1 Z " fill="#FD7A73" transform="translate(471,238)"/>
<path d="M0 0 C2 1 2 1 2 1 Z " fill="#FD7B73" transform="translate(460,238)"/>
<path d="M0 0 C2 1 2 1 2 1 Z " fill="#FC7B74" transform="translate(403,238)"/>
<path d="M0 0 C2 1 2 1 2 1 Z " fill="#FB7973" transform="translate(350,238)"/>
<path d="" fill="#794540" transform="translate(0,0)"/>
<path d="" fill="#F27770" transform="translate(0,0)"/>
<path d="" fill="#F27771" transform="translate(0,0)"/>
<path d="" fill="#F37871" transform="translate(0,0)"/>
<path d="" fill="#F37872" transform="translate(0,0)"/>
<path d="" fill="#F47A71" transform="translate(0,0)"/>
<path d="" fill="#F47870" transform="translate(0,0)"/>
<path d="" fill="#F57972" transform="translate(0,0)"/>
<path d="" fill="#F67971" transform="translate(0,0)"/>
<path d="" fill="#F57972" transform="translate(0,0)"/>
<path d="" fill="#F47872" transform="translate(0,0)"/>
<path d="" fill="#F67971" transform="translate(0,0)"/>
<path d="" fill="#F47A71" transform="translate(0,0)"/>
<path d="" fill="#F57870" transform="translate(0,0)"/>
<path d="" fill="#F27771" transform="translate(0,0)"/>
<path d="" fill="#F57872" transform="translate(0,0)"/>
<path d="" fill="#F37771" transform="translate(0,0)"/>
<path d="" fill="#F57772" transform="translate(0,0)"/>
<path d="" fill="#F47870" transform="translate(0,0)"/>
<path d="" fill="#F47771" transform="translate(0,0)"/>
<path d="" fill="#F57971" transform="translate(0,0)"/>
<path d="" fill="#F27870" transform="translate(0,0)"/>
<path d="" fill="#F47972" transform="translate(0,0)"/>
<path d="" fill="#F17771" transform="translate(0,0)"/>
<path d="" fill="#F57A70" transform="translate(0,0)"/>
<path d="" fill="#F47A72" transform="translate(0,0)"/>
<path d="" fill="#F67871" transform="translate(0,0)"/>
<path d="" fill="#F2766F" transform="translate(0,0)"/>
<path d="" fill="#F67972" transform="translate(0,0)"/>
<path d="" fill="#F47973" transform="translate(0,0)"/>
<path d="" fill="#F37771" transform="translate(0,0)"/>
<path d="" fill="#F47973" transform="translate(0,0)"/>
<path d="" fill="#F47871" transform="translate(0,0)"/>
<path d="" fill="#F47872" transform="translate(0,0)"/>
<path d="" fill="#F47872" transform="translate(0,0)"/>
<path d="" fill="#F47972" transform="translate(0,0)"/>
<path d="" fill="#F47771" transform="translate(0,0)"/>
<path d="" fill="#F37770" transform="translate(0,0)"/>
<path d="" fill="#F3786F" transform="translate(0,0)"/>
<path d="" fill="#F47871" transform="translate(0,0)"/>
<path d="" fill="#F27770" transform="translate(0,0)"/>
<path d="" fill="#F47971" transform="translate(0,0)"/>
<path d="" fill="#F3766F" transform="translate(0,0)"/>
<path d="" fill="#F27771" transform="translate(0,0)"/>
<path d="" fill="#F37770" transform="translate(0,0)"/>
<path d="" fill="#F1766E" transform="translate(0,0)"/>
<path d="" fill="#F37871" transform="translate(0,0)"/>
<path d="" fill="#F27770" transform="translate(0,0)"/>
<path d="" fill="#F17972" transform="translate(0,0)"/>
<path d="" fill="#F17872" transform="translate(0,0)"/>
<path d="" fill="#EF7671" transform="translate(0,0)"/>
<path d="" fill="#F37673" transform="translate(0,0)"/>
<path d="" fill="#ED7571" transform="translate(0,0)"/>
<path d="" fill="#EE7670" transform="translate(0,0)"/>
<path d="" fill="#ED7571" transform="translate(0,0)"/>
<path d="" fill="#F17874" transform="translate(0,0)"/>
<path d="" fill="#F37772" transform="translate(0,0)"/>
<path d="" fill="#FB7A76" transform="translate(0,0)"/>
<path d="" fill="#FB7A75" transform="translate(0,0)"/>
<path d="" fill="#FD7A73" transform="translate(0,0)"/>
<path d="" fill="#FD7C76" transform="translate(0,0)"/>
<path d="" fill="#FA7A74" transform="translate(0,0)"/>
<path d="" fill="#FD7C76" transform="translate(0,0)"/>
<path d="" fill="#FD7A76" transform="translate(0,0)"/>
<path d="" fill="#FE7B75" transform="translate(0,0)"/>
<path d="" fill="#FE7A75" transform="translate(0,0)"/>
<path d="" fill="#FF7B75" transform="translate(0,0)"/>
<path d="" fill="#FC7D74" transform="translate(0,0)"/>
<path d="" fill="#FD7B74" transform="translate(0,0)"/>
<path d="" fill="#FC7C76" transform="translate(0,0)"/>
<path d="" fill="#FD7A75" transform="translate(0,0)"/>
<path d="" fill="#FE7975" transform="translate(0,0)"/>
<path d="" fill="#FE7C77" transform="translate(0,0)"/>
<path d="" fill="#FE7C78" transform="translate(0,0)"/>
<path d="" fill="#FE7B73" transform="translate(0,0)"/>
<path d="" fill="#FC7A75" transform="translate(0,0)"/>
<path d="" fill="#FD7A76" transform="translate(0,0)"/>
<path d="" fill="#FD7B76" transform="translate(0,0)"/>
<path d="" fill="#FC7A76" transform="translate(0,0)"/>
<path d="" fill="#FC7A75" transform="translate(0,0)"/>
<path d="" fill="#FC7A74" transform="translate(0,0)"/>
<path d="" fill="#FE7B74" transform="translate(0,0)"/>
<path d="" fill="#FD7B74" transform="translate(0,0)"/>
<path d="" fill="#FD7A75" transform="translate(0,0)"/>
<path d="" fill="#FC7B75" transform="translate(0,0)"/>
<path d="" fill="#FD7A75" transform="translate(0,0)"/>
<path d="" fill="#FC7973" transform="translate(0,0)"/>
<path d="" fill="#FC7B75" transform="translate(0,0)"/>
<path d="" fill="#FE7973" transform="translate(0,0)"/>
<path d="" fill="#FE7975" transform="translate(0,0)"/>
<path d="" fill="#FD7A74" transform="translate(0,0)"/>
<path d="" fill="#FD7C74" transform="translate(0,0)"/>
<path d="" fill="#F47A77" transform="translate(0,0)"/>
<path d="" fill="#F67B77" transform="translate(0,0)"/>
<path d="" fill="#FB7D77" transform="translate(0,0)"/>
<path d="" fill="#FA7B76" transform="translate(0,0)"/>
<path d="" fill="#FD7B75" transform="translate(0,0)"/>
<path d="" fill="#F97A76" transform="translate(0,0)"/>
<path d="" fill="#FA7B76" transform="translate(0,0)"/>
<path d="" fill="#F37977" transform="translate(0,0)"/>
<path d="" fill="#F97C74" transform="translate(0,0)"/>
<path d="" fill="#F97A70" transform="translate(0,0)"/>
<path d="" fill="#FA7B75" transform="translate(0,0)"/>
<path d="" fill="#FA7871" transform="translate(0,0)"/>
<path d="" fill="#FA7973" transform="translate(0,0)"/>
<path d="" fill="#F97A73" transform="translate(0,0)"/>
<path d="" fill="#FA7A75" transform="translate(0,0)"/>
<path d="" fill="#FC7973" transform="translate(0,0)"/>
<path d="" fill="#FD7B75" transform="translate(0,0)"/>
<path d="" fill="#FC7A73" transform="translate(0,0)"/>
<path d="" fill="#FD7B74" transform="translate(0,0)"/>
<path d="" fill="#FD7B74" transform="translate(0,0)"/>
<path d="" fill="#FD7B74" transform="translate(0,0)"/>
<path d="" fill="#FD7B73" transform="translate(0,0)"/>
<path d="" fill="#FC7B72" transform="translate(0,0)"/>
<path d="" fill="#FD7D75" transform="translate(0,0)"/>
<path d="" fill="#FE7C75" transform="translate(0,0)"/>
<path d="" fill="#FE7C73" transform="translate(0,0)"/>
<path d="" fill="#FD7C75" transform="translate(0,0)"/>
<path d="" fill="#FD7A72" transform="translate(0,0)"/>
<path d="" fill="#FD7B75" transform="translate(0,0)"/>
<path d="" fill="#FC7B75" transform="translate(0,0)"/>
<path d="" fill="#FC7C74" transform="translate(0,0)"/>
<path d="" fill="#FE7A75" transform="translate(0,0)"/>
<path d="" fill="#FD7B76" transform="translate(0,0)"/>
<path d="" fill="#FD7A73" transform="translate(0,0)"/>
<path d="" fill="#FC7C74" transform="translate(0,0)"/>
<path d="" fill="#FD7C75" transform="translate(0,0)"/>
<path d="" fill="#FD7C76" transform="translate(0,0)"/>
<path d="" fill="#FD7A72" transform="translate(0,0)"/>
<path d="" fill="#FD7A75" transform="translate(0,0)"/>
<path d="" fill="#FD7975" transform="translate(0,0)"/>
<path d="" fill="#F07872" transform="translate(0,0)"/>
</svg>
